<?xml version="1.0" encoding="utf-8"?>
<!-- Generator: Adobe Illustrator 23.1.0, SVG Export Plug-In . SVG Version: 6.00 Build 0)  -->
<svg version="1.1" id="Слой_1" xmlns="http://www.w3.org/2000/svg" xmlns:xlink="http://www.w3.org/1999/xlink" x="0px" y="0px"
	 viewBox="0 0 497 497" style="enable-background:new 0 0 497 497;" xml:space="preserve">
<style type="text/css">
	.st0{fill-rule:evenodd;clip-rule:evenodd;fill:#6989AD;}
</style>
<path class="st0" d="M233.6,1.5c-9.5,2.3-19.3,8.1-27.1,15.9c-8,8.1-12.3,14.8-16.2,25.5c-2.5,6.8-2.7,8.8-2.8,21.5
	c0,11.7,0.3,15.3,2.2,21.9c4.4,15,11.9,28.7,21.6,39c4.4,4.7,4.6,5.2,4.6,10.8c0,3.2-0.2,5.8-0.4,5.8s-9.8,2.5-21.3,5.6
	c-24.9,6.7-32,10-41.5,19.5c-12.4,12.4-15.3,22.4-14.7,50.7c0.4,18.9,1,21.6,5.4,23.3c3.8,1.4,206.6,1.3,209.8-0.2
	c1.4-0.6,2.8-1.9,3.1-2.8c1.3-3.3,1.7-35.6,0.6-43.1c-1.7-10.9-6-19.1-14.5-27.5c-9.5-9.4-16.9-12.8-42.3-19.6l-20.3-5.4v-6.1
	c0-5.9,0.1-6.2,4.6-10.5c9.7-9.5,18-24.7,22-40.8c5.6-22,1.3-44.4-11.7-61.7C286.6,12.5,272.9,3.7,260.1,1
	C253-0.5,240.8-0.3,233.6,1.5z M255,15.9c18.3,3.5,32.7,17.9,37.3,37.2c0.6,2.6,0.5,2.8-3.3,2.8c-5.4,0-15.7-3.3-21.4-6.9
	c-2.6-1.7-7.2-5.5-10.3-8.5c-8.2-8.2-12.4-7.6-17.6,2.7c-3.6,7.1-12,16.4-18.9,20.8c-4.1,2.6-14.8,7-17.2,7c-0.5,0-0.8-2.8-0.8-6.3
	c0-25.9,20.2-48.6,44.1-49.6C248.5,14.9,252,15.3,255,15.9z M255.4,59.5c7.9,5.9,25.9,12.3,34.8,12.4c2.7,0,2.8,0.2,2.1,3.8
	c-3.1,18-15.2,38.3-27.6,46.4c-6.7,4.4-11.5,6-18.1,6c-12.3-0.1-27.5-12.8-36.3-30.4c-2.5-5-4.4-9.7-4.3-10.5c0.2-0.8,2.5-2,5.5-2.8
	c12.5-3.2,25.9-12.1,34-22.4c2.6-3.4,5.1-5.7,5.7-5.3C251.9,56.9,253.8,58.2,255.4,59.5z M247.9,143.1c4.1,0,9.4-0.7,11.7-1.5
	c4-1.4,4.2-1.4,4.7,0.5c0.8,3.1-1.2,13-3.2,15.8c-4.4,6.1-15.1,7.9-21.3,3.7c-5.7-3.8-7.9-8.1-7.9-15.3v-6.2l4.3,1.5
	C238.5,142.5,243.7,143.1,247.9,143.1z M224.5,170c1.4,1.5,4.8,3.9,7.7,5.4c6.7,3.7,17.9,4.5,25.6,2c6.3-2.1,15-9.8,17.6-15.5
	c1-2.3,2.5-4.1,3.4-4.1c3.8,0,38.9,10.3,43.5,12.8c6.4,3.5,13.8,10.7,16.6,16.2c2.3,4.6,3.9,16.8,3.9,31.7l0,7.3h-95.1h-95.1
	l0.3-16.8c0.4-19.2,1.4-22.5,8.9-30.7c6.6-7.2,11.5-9.4,33.8-15.5l20.6-5.6l2.8,5.1C220.8,165.1,223.1,168.5,224.5,170z M91,265.5
	c-15,4-29.5,15.8-36.8,30c-5.7,11-7.6,18.8-7.6,30.9c0,20.7,8.5,42,23.1,57.7c4.1,4.4,4.3,4.9,4,10l-0.3,5.3l-19.8,5.7
	c-24.2,7-31.4,10.6-40.1,19.8c-11.7,12.4-14,20.6-13.5,47.8c0.3,17.5,0.4,18.2,2.8,20.7l2.4,2.6h100.4c63.6,0,101.1-0.4,102.2-1
	c3.3-1.7,4-6.7,4-25.5c0-26.3-2.7-34.4-15.6-46.5c-8.5-8-16-11.5-38.9-18l-20-5.7l-0.3-5.3c-0.3-5.1-0.1-5.5,4.5-10.4
	c17.6-18.7,26.7-48,21.9-70.7c-4.7-22.5-22.6-42.1-43.2-47.5C113.1,263.5,98.2,263.5,91,265.5z M383.4,264.5
	c-24.7,3.7-44.4,22.7-50.1,48.2c-2.1,9.5-1.4,25.5,1.6,36c3.9,13.5,12.6,28.7,21.4,37.1c3.2,3.1,3.6,4,3.6,8.7
	c0,6.1,2.7,4.7-23.5,11.9c-10,2.8-19.9,6.2-24,8.3c-10,5.2-18.5,13.9-23.2,23.7l-3.8,7.9l-0.3,22.2l-0.3,22.2l3,3l3,3h99.9
	c97.7,0,100,0,102.4-2c2.4-1.9,2.5-2.5,3.2-18.3c0.4-9.3,0.2-19.9-0.3-24.7c-2.3-19.1-13.4-32.2-34.7-41.1
	c-6.5-2.7-14.9-5.1-37.1-10.5c-2-0.5-2.3-1.2-2.3-5.5c0-4.7,0.4-5.5,6.5-12.7c7.7-9.1,15.5-24.2,18.6-35.7c3.2-12.1,3-28.4-0.4-39
	c-6.6-20.2-21.5-35.2-40.5-40.9C400.4,264.8,388.3,263.8,383.4,264.5z M242,273.5c-1.6,2-2.1,4.1-2.1,8.4
	c0,22.5-12.3,48.5-28.8,60.9c-8,6-14.9,8.8-25.1,10.1c-6.3,0.8-8,1.4-9.9,3.6c-1.8,2-2.2,3.4-1.7,5.8c1.3,6.8,7.9,8.2,21.8,4.7
	c13.9-3.6,27.3-12,36.7-23.1c4.9-5.9,14.1-20.5,14.1-22.6c0-0.7,0.4-1.3,1-1.3c0.5,0,1,0.6,1,1.3c0,2.1,9.1,16.8,14.1,22.6
	c9.4,11.1,22.8,19.5,36.7,23.1c13.9,3.6,20.5,2.2,21.8-4.7c0.5-2.4,0-3.7-1.7-5.8c-1.9-2.2-3.6-2.8-9.3-3.6
	c-19.5-2.4-35.6-15-45.5-35.6c-5.6-11.7-7.9-20.3-8.9-33.1c-0.8-11-2.3-13.4-8.2-13.4C245,270.9,243.6,271.5,242,273.5z M113.9,280
	c16.3,3.8,29.1,17.3,33.4,35.2c0.7,2.8,0.6,2.8-3.1,2.1c-12.6-2.2-20.9-6.4-29.5-14.8c-8.6-8.4-11.9-7.8-17.8,3.3
	c-6.1,11.4-18.7,21.8-30.2,25l-3.8,1v-7.2c0-12.6,4.1-22.6,13.3-32.3C86.5,281.2,100.2,276.8,113.9,280z M407.4,283.3
	c11.8,5.8,22.3,19.3,24.2,31l0.6,3.6l-3.9-0.6c-11.3-1.7-22.2-7.4-30.2-15.8c-6.8-7.2-11.3-6.2-16.3,3.6
	c-3.6,7.1-11.1,15.4-17.8,19.8c-5.1,3.3-15.5,7.2-16.5,6.3c-1-1-0.6-8.5,0.9-15.4c2.4-11.5,9.1-22.1,17.8-28.6
	C378.7,278,393.8,276.5,407.4,283.3z M123.1,327.3c6.7,3.1,16.1,5.5,21,5.5c2.1,0,3.9,0.3,4.2,0.8c0.9,1.4-3.4,15.8-6.7,22.8
	c-9.2,19.3-25.8,32.2-38.8,30.1c-13-2.1-27.2-15.7-34.6-33.3c-1.2-2.9-2.2-5.6-2.2-6.1s2.3-1.4,5-2.1c11.4-2.6,24.8-11.3,32.7-21.1
	l4.7-5.9l4.7,3.4C115.6,323.3,120.1,326,123.1,327.3z M406.7,326.8c6.8,3.4,16.6,6.1,22.5,6.1c3.3,0,3.8,0.3,3.8,2.4
	c0,1.3-0.9,5.5-2.1,9.3c-6.7,22-22.5,39.6-37.5,41.9c-13.2,2-29.7-10.7-39-30c-4.4-9-4.3-10.1,0.4-11c5.7-1,19.1-7.9,24.9-12.7
	c2.8-2.4,7.1-6.7,9.4-9.5l4.2-5.2l3.6,2.8C398.8,322.3,403.2,325,406.7,326.8z M95.9,400.4c7,1.9,12.4,1.9,18.6,0
	c2.7-0.8,5.3-1.5,5.8-1.5c1.5,0-0.2,12-2.2,15.4c-3.5,6.1-12.1,8.2-20.3,4.9c-5.1-2-7.8-7.3-7.9-15.1c0-2.9,0.1-5.2,0.2-5.2
	C90.3,398.9,92.9,399.6,95.9,400.4z M384.7,401.1c6,1.1,12.9,0.4,18.5-1.8c1.5-0.6,1.8,0,1.7,5.2c0,10.1-5.4,15.6-15.1,15.6
	c-9.1,0-14.5-5.5-15.6-15.8c-0.6-5.7-0.6-5.7,1.8-5C377.3,399.7,381.2,400.5,384.7,401.1z M77.8,420.4c3.2,6,10,11.9,16.3,14
	c7,2.3,19.7,1.6,25.6-1.4c5.5-2.8,11.8-9.3,13.4-13.7c0.7-1.9,1.7-3.4,2.3-3.4c2.8,0,35.7,9.4,40.3,11.5c7,3.2,14.6,10.5,17.2,16.5
	c2.4,5.6,3.8,22.1,2.7,31.3l-0.7,5.7h-90h-90l0.3-15.8c0.3-14.1,0.6-16.2,2.7-20.5c2.8-5.8,9.9-13,15.5-16
	c3.9-2,37.4-12.5,40.6-12.7C74.7,415.9,76.5,417.9,77.8,420.4z M362.4,419.8c2.4,5.3,9,11.5,15,14.3c7.1,3.2,18.1,3.1,25-0.2
	c6.1-2.9,11.6-8.3,14.1-13.8c1.1-2.3,2.4-4.1,2.9-4.2c2.1,0,27.7,7,34,9.4c8.9,3.4,17,8.9,20.6,14.1c4.1,5.9,5.8,13.4,6.6,28.5
	l0.7,12.9h-90.6h-90.6v-15.3c0-15.1,0-15.4,3.1-21.5c3.4-6.7,9.6-12.9,16.4-16.2c4.1-2,36.4-11.7,39.7-11.9
	C360,415.9,361.3,417.5,362.4,419.8z"/>
</svg>
