<svg width="484" height="463" viewBox="0 0 484 463" fill="none" xmlns="http://www.w3.org/2000/svg">
<path fill-rule="evenodd" clip-rule="evenodd" d="M232.7 0.543445C228.226 2.04044 227.706 5.12145 228.042 28.1424C228.402 52.9164 228.122 52.2394 238.522 53.4914C250.964 54.9894 261.584 62.4554 266.741 73.3304C268.983 78.0584 269.349 80.1644 269.349 88.3304C269.349 96.7114 269.019 98.5024 266.549 103.533C263.571 109.597 255.298 117.928 251.244 118.946C249.674 119.34 247.39 118.665 244.437 116.934C238.652 113.544 237.151 113.64 230.086 117.848C224.396 121.238 224.055 121.314 220.765 119.923C215.687 117.778 210.504 113.473 205.902 107.58C202.592 103.341 201.229 102.33 198.826 102.33C195.166 102.33 191.849 105.454 191.849 108.9C191.849 112.29 196.523 118.953 202.964 124.744C205.843 127.332 207.758 129.769 207.256 130.207C206.757 130.642 160.106 156.103 103.587 186.788C24.8294 229.547 0.704446 243.076 0.308446 244.705C0.0234464 245.874 -0.0835536 294.402 0.0704464 352.544C0.334446 452.484 0.447446 458.356 2.13545 460.044C3.83745 461.747 14.8924 461.844 239.135 462.123C398.97 462.322 475.498 462.085 477.934 461.382C480.211 460.726 481.945 459.415 482.684 457.792C484.432 453.956 484.349 254.361 482.599 252.092C481.912 251.202 451.424 233.637 414.849 213.061C378.274 192.485 329.674 165.148 306.849 152.313C284.024 139.477 265.165 128.834 264.94 128.66C264.715 128.487 266.996 125.754 270.01 122.587C280.071 112.015 284.247 101.731 284.124 87.8304C283.998 73.6034 278.796 62.0524 268.121 52.2954C261.663 46.3944 256.66 43.6114 248.349 41.2974L242.349 39.6274L242.075 21.7814C241.854 7.38845 241.503 3.60545 240.26 2.23245C238.219 -0.0235538 235.924 -0.536555 232.7 0.543445ZM290.299 180.947C315.955 205.487 336.746 225.766 336.5 226.012C335.583 226.93 174.836 200.868 175.159 199.854C175.338 199.291 188.279 185.043 203.917 168.192L232.349 137.553L237.349 137.127C240.099 136.892 242.642 136.617 242.999 136.515C243.357 136.413 264.642 156.408 290.299 180.947ZM200.254 151.568C198.27 153.899 174.321 179.703 162.918 191.796L156.349 198.763L111.869 210.983C87.4054 217.704 67.2685 223.082 67.1205 222.934C66.8625 222.676 200.926 149.409 201.754 149.356C201.977 149.342 201.302 150.337 200.254 151.568ZM365.299 201.249C405.421 223.843 437.66 242.33 436.941 242.33C436.222 242.33 418.782 239.63 398.184 236.33C377.587 233.03 360.311 230.33 359.792 230.33C359.273 230.33 358.849 229.715 358.849 228.963C358.849 227.858 334.807 204.326 287.849 159.469L283.349 155.17L287.849 157.669C290.324 159.043 325.176 178.654 365.299 201.249ZM316.849 237.852C397.424 250.785 464.811 261.633 466.599 261.959L469.849 262.553V355.441V448.33H318.349H166.849V330.924C166.849 219.618 166.94 213.539 168.599 213.928C169.562 214.153 236.274 224.919 316.849 237.852ZM152.849 331.342V448.354L115.099 448.092L77.3494 447.83V341.404V234.978L114.349 224.723C134.699 219.082 151.687 214.436 152.099 214.399C152.511 214.361 152.849 266.985 152.849 331.342ZM62.8494 343.83V448.33H38.3494H13.8494V350.369V252.407L17.5994 251.381C19.6624 250.817 30.1244 247.914 40.8494 244.93C51.5744 241.946 60.9124 239.465 61.5994 239.417C62.5924 239.348 62.8494 260.85 62.8494 343.83ZM202.922 248.965C200.864 251.581 200.849 252.169 200.849 332.51V413.421L203.304 415.875C206.302 418.874 208.754 418.979 212.214 416.257L214.849 414.185V332.257C214.849 251.663 214.816 250.297 212.849 248.33C209.971 245.452 205.457 245.741 202.922 248.965ZM255.304 255.785L252.849 258.239V335.35C252.849 412.746 252.957 415.367 256.249 417.565C258.349 418.967 262.86 418.319 264.849 416.33C266.815 414.364 266.849 412.997 266.849 336.004V257.679L264.535 255.504C261.502 252.656 258.336 252.752 255.304 255.785ZM299.71 263.242L297.349 265.153V340.33V415.507L299.71 417.418C302.744 419.875 304.939 419.833 308.214 417.257L310.849 415.185V340.257C310.849 266.663 310.813 265.294 308.849 263.33C306.328 260.809 302.757 260.774 299.71 263.242ZM345.484 269.403L342.849 271.475V343.403C342.849 413.997 342.886 415.367 344.849 417.33C347.727 420.208 352.241 419.919 354.776 416.695C356.828 414.087 356.849 413.361 356.849 344.242C356.849 295.204 356.519 273.699 355.739 271.987C354.746 269.809 351.126 267.33 348.937 267.33C348.487 267.33 346.933 268.263 345.484 269.403ZM389.849 274.33C387.887 276.292 387.849 277.663 387.849 346.175C387.849 411.431 387.964 416.123 389.599 417.585C393.245 420.845 398.992 419.814 400.743 415.586C401.577 413.572 401.816 394.161 401.62 344.484L401.349 276.153L398.988 274.241C395.941 271.774 392.37 271.809 389.849 274.33ZM430.849 279.33C428.889 281.29 428.849 282.663 428.849 348.83C428.849 414.997 428.889 416.37 430.849 418.33C431.949 419.43 433.974 420.33 435.349 420.33C436.724 420.33 438.749 419.43 439.849 418.33C441.809 416.37 441.849 414.997 441.849 348.83C441.849 282.663 441.809 281.29 439.849 279.33C438.749 278.23 436.724 277.33 435.349 277.33C433.974 277.33 431.949 278.23 430.849 279.33ZM97.4845 321.403L94.8494 323.475V339.403C94.8494 353.997 95.0164 355.497 96.8494 357.33C99.5114 359.992 104.238 359.902 106.81 357.141C108.678 355.136 108.849 353.668 108.849 339.596C108.849 324.624 108.787 324.177 106.394 321.785C103.396 318.786 100.944 318.681 97.4845 321.403ZM37.4844 329.403C34.8934 331.44 34.8494 331.681 34.8494 343.748C34.8494 354.367 35.0954 356.243 36.6784 357.675C39.5294 360.255 44.3434 359.788 46.7764 356.695C48.5544 354.436 48.8494 352.661 48.8494 344.242C48.8494 333.452 47.8654 330.114 44.1924 328.44C40.9204 326.949 40.5324 327.005 37.4844 329.403Z" fill="#6989AD"/>
</svg>
