<?xml version="1.0" encoding="utf-8"?>
<!-- Generator: Adobe Illustrator 23.1.0, SVG Export Plug-In . SVG Version: 6.00 Build 0)  -->
<svg version="1.1" id="Слой_1" xmlns="http://www.w3.org/2000/svg" xmlns:xlink="http://www.w3.org/1999/xlink" x="0px" y="0px"
	 viewBox="0 0 460 496" style="enable-background:new 0 0 460 496;" xml:space="preserve">
<style type="text/css">
	.st0{fill-rule:evenodd;clip-rule:evenodd;fill:#6989AD;}
</style>
<path class="st0" d="M2,2C0,4,0,5.3,0,233v229l2.2,2c2.2,2,2.9,2,100.8,2c107.1,0,102,0.3,103.4-5.4c0.3-1.3,0.2-3.6-0.4-5.1
	c-2.1-5.7,0.2-5.5-99.5-5.5H15V232.5V15h165h165v71.4c0,68.3,0.1,71.5,1.9,73.7c2.4,2.9,8.1,3.1,11.1,0.5c2-1.8,2-2.5,2-79.2
	c0-76,0-77.4-2-79.3c-2-2-3.3-2-178-2S4,0,2,2z M87.4,41c-2.6,1-4.1,4.9-4.7,11.6c-1.2,15.3-15.9,30-31.2,31.2
	c-6.9,0.6-10.5,2.1-11.6,5c-0.5,1.4-0.9,61.2-0.9,145.2v142.8l2.1,2.6c1.5,1.8,3,2.6,5.3,2.7c5.3,0,14.2,2.5,18.9,5.3
	c5.7,3.3,12.5,10.7,14.9,16.2c1.1,2.4,2.3,7.6,2.8,11.5c1.5,12.1-4.8,11,63.2,11c57.5,0,58.9,0,60.8-2c2.8-2.8,2.6-7.5-0.5-10.5
	l-2.5-2.5h-52.5H99l-0.6-2.8c-3.9-18.1-18.4-33.9-36.2-39.4l-7.3-2.3V232.9V99.2l4.7-1.2c16.7-4.2,31.7-18.7,37.3-36l2.3-7.1H180
	c87.2,0,82-0.3,82,4.9c0,2.9,6.5,15.4,10.4,20c7.2,8.6,16.2,14.5,26.9,17.6l5.7,1.7v28.4c0,19,0.4,29.2,1.1,30.9
	c2.5,5.6,11.2,5.6,13.7,0c1.6-3.4,1.6-66.3,0-69.7c-1.4-3-4.8-4.7-9.9-4.7c-14.6,0-31.1-15.2-32.6-30.2c-0.8-8.1-2.1-11.4-4.9-12.7
	C269.4,39.8,90.8,39.6,87.4,41z M122,91.7c-5.6,2.1-7,9.6-2.4,13.2c2.6,2,3.5,2.1,59.9,2.1s57.3,0,59.9-2.1c3.7-2.9,3.7-8.9,0-11.9
	c-2.6-2-3.4-2.1-59.3-2C149,91.1,122.8,91.4,122,91.7z M89,151.3c-3.2,1.6-4.7,5.8-3.4,9.4c0.5,1.5,2.1,3.3,3.4,4
	c1.9,1,22,1.3,91.3,1.3l88.8,0l2.5-2.5c1.5-1.5,2.5-3.6,2.5-5.5s-0.9-4-2.5-5.5l-2.5-2.5l-88.8,0C111,150,91,150.3,89,151.3z
	 M329.4,181.9c-7.9,3.6-11,8.1-15.5,22.3l-4.1,12.9l-10.4-5.6c-17.2-9.2-25.7-9.5-34.9-1.3c-6.3,5.5-8.8,10.8-8.9,18.3
	c0,5.1,0.6,7.3,4.1,14.2c2.3,4.5,5.1,9.7,6.2,11.5c1.1,1.8,2,3.6,2,4c0,0.4-5.8,2.5-12.8,4.7c-10.5,3.4-13.5,4.7-16.6,7.8
	c-8.7,8.5-10.2,22-3.4,31.9c3.3,4.8,8.3,7.6,21,11.9c6.2,2.1,11.5,4,11.7,4.1c0.2,0.1-2.5,5.7-6,12.4c-5.9,11.3-6.3,12.6-6.2,18.5
	c0.1,6.9,3.1,13.6,7.9,17.4c1.4,1.1,2.5,2.2,2.5,2.6c0,0.3-10.6,20.8-23.5,45.6c-12.9,24.7-23.5,45.6-23.5,46.5
	c0,4.3,4.3,8.6,8.7,8.6c0.9,0,9.4-4.3,19-9.6c9.6-5.3,17.7-9.3,18-9c0.3,0.3,2.3,9.2,4.4,19.8c2.9,14.2,4.4,19.8,5.8,21.2
	c2.3,2.3,8,2.6,10.4,0.7c0.9-0.7,12.4-22.2,25.7-47.7l24.1-46.4l6.6,0.3l6.6,0.3l22.7,46.9c12.5,25.8,23.5,47.5,24.5,48.3
	c2.5,1.9,6.8,1.7,9.3-0.4c1.7-1.4,3.1-6.1,6.7-21.7c2.5-11,4.6-20.1,4.7-20.1c0.1-0.1,7.8,4.3,17.2,9.7c17.3,10,22.3,11.8,25.3,8.7
	c3.1-3.1,1.2-7.9-21.9-54.9l-23.1-47.1l3.1-3.2c4.2-4.4,6.2-9.6,6.2-16.6c0-5.4-0.6-7.2-6-17.5c-3.3-6.3-6-11.7-6-11.9
	c0-0.2,4.9-2.1,10.9-4s12.9-4.9,15.4-6.5c12-7.6,14.1-24.7,4.4-35.7c-3.8-4.3-8.7-6.8-20.7-10.6c-5.2-1.6-9.7-3.1-9.8-3.3
	c-0.2-0.2,2.4-5.5,5.8-11.9c5.5-10.5,6.1-12.2,6.1-17.6c0-14.2-10-24.4-24-24.4c-5.9,0-7.5,0.5-17.9,5.8c-6.3,3.2-11.7,5.4-12.1,5
	c-0.4-0.5-2-5.1-3.5-10.3c-1.5-5.2-3.6-11.1-4.6-13.1c-2.3-4.6-9.2-10.6-13.8-11.9C341.5,179.5,333.9,179.9,329.4,181.9z
	 M346.3,199.1c2,1.6,3.6,5.1,6.7,15.3c2.3,7.3,4.9,14,5.8,15c0.9,1,4,3,7,4.5l5.4,2.6l14.2-7.3c13.9-7.2,14.3-7.3,18-6.1
	c2.8,0.9,4.1,2.1,5.2,4.7c1.7,4,1.9,3.5-7.1,18.8c-6.7,11.3-7,13.7-3.3,21.2l2.4,4.9l14.4,4.7c15.6,5.1,18.9,7.4,18.9,12.8
	c0,5.3-3.4,7.5-18.8,12.5l-14.3,4.6l-2.4,5.4c-1.3,3-2.4,6.2-2.4,7.1c0,0.9,2.9,7.4,6.5,14.4c6.9,13.5,7.7,17.1,4.5,21.1
	c-3.6,4.6-6.2,4.2-20.9-3.3c-7.4-3.8-14.4-6.9-15.6-6.9c-1.1,0-4.6,1.3-7.6,2.8l-5.5,2.7l-4.7,14.4c-2.6,8.1-5.6,15.3-6.8,16.5
	c-2.8,2.8-9.3,2.8-11.9,0.1c-1-1.1-3.8-7.8-6.1-15c-2.3-7.1-4.6-13.8-5.1-14.7c-1.1-2.1-9.2-5.8-12.7-5.8c-1.4,0-8.1,2.9-15,6.5
	c-13.7,7.2-17,7.8-20.8,4c-3.9-3.9-3.2-7.4,4-21.3c3.6-6.8,6.5-13.4,6.5-14.7c0-1.2-1.2-4.6-2.8-7.6l-2.8-5.4l-14.3-4.6
	c-7.8-2.5-14.9-5.3-15.8-6.1c-0.8-0.8-1.8-3.2-2.1-5.2c-1-5.9,2.8-8.7,17.2-13.2c6.6-2,13-4.3,14.2-5.1c2.5-1.6,7.3-10.3,7.3-13.2
	c0-1-3.1-8-7-15.4c-3.9-7.4-7-14.2-7-15.1c0-2.2,4.6-7.5,7.2-8.3c1.5-0.5,6.3,1.4,16.7,6.5c13.5,6.6,14.9,7.1,18.1,6.1
	c8.4-2.4,9.4-3.7,14.4-18.7c5.1-15.2,5.2-15.5,8.1-17.1C339.6,196.5,343.5,196.8,346.3,199.1z M87.5,211.5c-3,3-3.2,7.4-0.5,10.7
	l1.9,2.4h74.5c71.8,0,74.6-0.1,76.6-1.9c3.2-2.9,2.9-8.8-0.5-11.5c-2.6-2.1-3.3-2.1-76-2.1H89.9L87.5,211.5z M332,251.4
	c-15.7,3.4-27.2,15.5-30,31.8c-1.4,7.8,0.5,18.7,4.4,25.2c12.9,22,43.6,25.9,61.2,7.9c21.9-22.5,10.3-59.5-20.4-65.3
	C340.6,249.8,339.1,249.8,332,251.4z M347.8,267.6c7.2,3,13.2,10.6,14.6,18.8c1.5,8.5-4.4,19.6-12.7,23.6c-5.1,2.4-14.1,2.8-19,0.7
	c-11.2-4.7-17-17.2-13.3-28.4C321.6,269.7,336.1,262.7,347.8,267.6z M87.5,270.5c-3,3-3.2,7.4-0.5,10.7l1.9,2.4l58.8,0.3
	c40.8,0.2,59.6-0.1,61.5-0.8c2.6-1.1,4.9-4.6,4.9-7.6c0-0.8-1.3-2.8-2.9-4.5l-2.9-2.9H149H89.9L87.5,270.5z M89.5,328.2
	c-4.8,2.7-5.9,7.9-2.6,11.9l1.9,2.4h73c70.4,0,73.1-0.1,75.1-1.9c3.2-2.9,2.9-8.8-0.5-11.5c-2.6-2.1-3.3-2.1-73.8-2
	C111,327.1,91,327.4,89.5,328.2z M314.5,373.2c1.9,6.2,4.4,12.8,5.6,14.6l2,3.3l-19.2,35.4C292.3,446.1,283.4,462,283,462
	s-1.7-5.6-3-12.6c-3-15.7-4.5-18.4-10.1-18.4c-3.2,0-6,1.2-12.8,5.3c-4.8,2.9-9.3,5.7-10,6.1c-1.1,0.6-1.1,0.4-0.4-1.1
	c0.5-1,8.7-16.6,18.2-34.6c15.9-30.2,17.5-32.8,19.9-32.8c1.5,0,7.8-2.7,14.1-5.9s11.6-5.9,11.7-5.9
	C310.8,362,312.5,367.1,314.5,373.2z M380.8,367.4c5.9,3,12.5,5.7,14.7,6.1l4,0.7l16.8,34.5c9.2,19,16.6,34.7,16.4,34.9
	c-0.2,0.2-4.9-2.3-10.3-5.6s-10.9-6-12.2-6c-4.3,0-6.7,3.8-9.1,14.5c-3.5,15.5-4.2,17.8-5,16.8c-0.4-0.5-8.7-17.3-18.4-37.5
	L360,389.3l4-12.4c2.2-6.8,4-13,4-13.7C368,361.2,369.4,361.7,380.8,367.4z"/>
</svg>
