<svg width="494" height="512" viewBox="0 0 494 512" fill="none" xmlns="http://www.w3.org/2000/svg">
<path fill-rule="evenodd" clip-rule="evenodd" d="M102.434 1.28472C97.4647 3.19972 92.6047 6.62272 90.1587 9.93172C84.8057 17.1727 84.9807 13.3957 84.9807 121.535V221.86L51.2307 222.16C18.8577 222.447 17.3177 222.547 13.4807 224.617C8.24469 227.443 4.57269 231.411 2.06169 236.959C0.0506883 241.401 0.0246881 242.932 0.00268813 355.604C-0.0183119 466.522 0.0366881 469.928 1.95769 476.104C5.82869 488.551 14.9707 499.477 26.7797 505.771C39.0257 512.298 26.8517 511.929 229.981 511.929C391.041 511.929 415.295 511.738 420.888 510.419C438.721 506.216 453.002 492.356 458.386 474.027C459.732 469.443 459.981 462.18 459.981 427.436V386.276L463.907 385.099C468.5 383.723 472.463 379.421 474.066 374.071C475.064 370.739 473.979 362.934 465.21 310.366L455.216 250.459L462.362 242.959C478.382 226.144 489.412 203.398 493.114 179.541C494.92 167.901 493.7 144.244 490.707 132.885C485.889 114.593 478.088 99.4977 466.074 85.2167L459.981 77.9747V48.6637V19.3517L457.391 14.1537C455.966 11.2947 453.179 7.61872 451.197 5.98472C443.401 -0.440279 455.2 -0.0492782 272.053 0.0347218C147.108 0.0917218 104.72 0.404722 102.434 1.28472ZM438.909 18.4217C440.466 19.2267 442.018 20.6127 442.36 21.5037C442.701 22.3937 442.981 32.2827 442.981 43.4787V63.8347L436.331 59.7947C402.059 38.9737 357.06 37.3317 321.265 55.5967C287.535 72.8087 263.88 104.83 257.395 142.058C255.002 155.796 255.879 178.025 259.337 191.272C264.416 210.733 273.86 228.092 287.105 242.311L294.728 250.496L284.743 310.385C275.717 364.527 274.875 370.661 275.97 374.316C278.296 382.082 287.501 388.014 294.694 386.384C296.227 386.037 314.936 377.865 336.271 368.225L375.06 350.697L409.043 366.078L443.026 381.459L442.754 425.959L442.481 470.459L439.697 475.743C435.982 482.793 430.01 488.585 423.129 491.811L417.481 494.459L253.297 494.724L89.1137 494.988L92.9177 489.224C95.0097 486.053 97.7927 480.759 99.1007 477.459L101.481 471.459L101.981 246.622L102.481 21.7857L105.287 19.3717L108.093 16.9587H272.086C414.06 16.9587 436.46 17.1547 438.909 18.4217ZM132.481 52.1137C129.234 53.8897 127.981 56.1067 127.981 60.0777C127.981 62.9227 128.609 64.3077 130.616 65.8857C133.208 67.9247 134.132 67.9587 187.505 67.9587C248.29 67.9587 245.426 68.3077 246.635 60.7547C247.147 57.5527 246.815 56.6387 244.181 54.0047L241.135 50.9587L187.808 50.9887C151.144 51.0097 133.856 51.3617 132.481 52.1137ZM392.981 61.3817C413.762 65.1327 431.72 74.6097 447.042 89.9097C460.515 103.365 469.014 117.997 474.216 136.696C476.065 143.342 476.374 147.048 476.361 162.459C476.347 179.126 476.147 181.11 473.658 189.243C461.785 228.044 432.286 255.202 393.981 262.598C384.359 264.456 365.602 264.456 355.981 262.598C317.704 255.205 287.599 227.532 276.417 189.459C272.654 176.648 271.92 155.589 274.76 141.959C283.313 100.919 313.864 70.5117 355.481 61.6177C364.308 59.7317 383.178 59.6127 392.981 61.3817ZM357.481 78.5527C340.949 82.2267 327.084 89.8647 314.986 101.964C304.922 112.028 298.476 122.366 293.789 135.959C290.599 145.21 290.514 145.892 290.534 161.959C290.553 177.831 290.675 178.82 293.744 187.959C303.411 216.75 326.361 238.046 355.163 244.951C366.501 247.669 383.461 247.669 394.799 244.951C423.645 238.036 446.819 216.5 456.126 187.959C460.065 175.883 461.093 159.076 458.674 146.311C455.521 129.675 447.124 113.86 435.099 101.912C424.371 91.2527 412.166 84.0437 397.81 79.8877C387.921 77.0247 367.413 76.3457 357.481 78.5527ZM389.481 95.4537C393.331 96.2577 400.654 98.9747 405.754 101.492C421.68 109.353 433.5 123.034 439.769 140.863C442.164 147.672 442.438 149.857 442.418 161.959C442.398 173.973 442.094 176.363 439.656 183.674C433.073 203.411 416.996 219.557 396.816 226.695C387.132 230.12 369.952 230.962 359.481 228.524C347.451 225.724 336.803 219.718 327.58 210.529C313.764 196.767 308.159 184.334 307.252 165.439C306.814 156.325 307.085 152.985 308.819 146.128C314.091 125.28 326.265 110.255 345.507 100.848C359.056 94.2247 374.505 92.3297 389.481 95.4537ZM133.981 102.665C127.946 104.871 125.911 112.666 130.295 116.785C132.587 118.938 132.979 118.959 170.295 118.959C206.486 118.959 208.059 118.881 209.956 116.984C214.448 112.492 213.248 105.804 207.519 103.411C204.698 102.232 197.601 101.974 169.763 102.038C150.908 102.081 134.806 102.364 133.981 102.665ZM130.155 156.273C127.343 159.267 127.226 165.204 129.925 167.903C132.799 170.777 136.323 171.111 160.153 170.77C181.513 170.463 181.862 170.424 184.403 168.035C187.84 164.802 187.894 159.781 184.526 156.414L182.072 153.959H157.201C132.496 153.959 132.315 153.975 130.155 156.273ZM130.616 207.032C127.337 209.61 126.984 215.506 129.892 219.098L131.803 221.459L177.94 221.738L224.077 222.017L227.029 219.065C230.176 215.918 230.697 213.172 228.818 209.643C226.327 204.967 226.947 205.024 178.866 204.991C134.208 204.96 133.195 205.002 130.616 207.032ZM84.7467 353.709L84.4807 468.459L81.5757 474.75C73.5987 492.026 53.6327 499.44 36.3697 491.537C29.8437 488.549 23.1627 482.005 19.9287 475.433L17.4807 470.459L17.2137 357.18L16.9477 243.902L19.4187 241.43L21.8897 238.959H53.4517H85.0137L84.7467 353.709ZM130.436 258.414C128.741 260.108 127.981 261.98 127.981 264.459C127.981 266.938 128.741 268.81 130.436 270.504L132.89 272.959H186.388C223.467 272.959 240.635 272.618 242.324 271.849C247.481 269.499 248.33 263.154 244.058 258.882L241.135 255.959H187.012H132.89L130.436 258.414ZM318.307 266.993C330.979 273.829 346.419 278.797 360.247 280.488L366.012 281.193L365.747 308.711L365.481 336.228L329.506 352.593C309.72 361.595 293.256 368.959 292.919 368.959C292.583 368.959 296.036 346.572 300.594 319.209C310.154 261.809 309.953 262.959 310.45 262.959C310.657 262.959 314.193 264.774 318.307 266.993ZM440.486 266.209C440.814 267.997 444.812 291.854 449.371 319.225C456.296 360.803 457.398 368.909 456.07 368.487C455.196 368.21 438.731 360.817 419.481 352.059L384.481 336.136L384.218 308.797L383.954 281.459L394.218 279.78C407.003 277.689 419.45 273.489 430.203 267.64C434.756 265.163 438.798 263.096 439.186 263.048C439.573 262.999 440.159 264.421 440.486 266.209ZM132.481 308.114C129.234 309.89 127.981 312.107 127.981 316.078C127.981 318.923 128.609 320.308 130.616 321.886C133.218 323.933 134.031 323.959 196.161 323.959H259.072L261.526 321.504C264.967 318.064 264.788 313.612 261.058 309.882L258.135 306.959L196.308 306.989C153.491 307.01 133.866 307.356 132.481 308.114ZM133.981 358.665C127.946 360.871 125.911 368.666 130.295 372.785L132.61 374.959H191.621H250.632L252.807 372.645C255.127 370.175 255.691 365.154 254.002 361.998C251.957 358.176 248.463 357.956 191.082 358.038C160.501 358.081 134.806 358.364 133.981 358.665ZM130.155 412.273C127.835 414.743 127.271 419.764 128.96 422.92C129.498 423.926 131.365 425.246 133.109 425.854C135.364 426.64 175.806 426.959 273.18 426.959C422.188 426.959 414.152 427.269 416.817 421.419C418.247 418.28 417.573 415.357 414.692 412.209L412.632 409.959H272.481H132.33L130.155 412.273Z" fill="#6989AD"/>
</svg>
