<?xml version="1.0" encoding="utf-8"?>
<!-- Generator: Adobe Illustrator 23.0.0, SVG Export Plug-In . SVG Version: 6.00 Build 0)  -->
<svg version="1.1" id="Capa_1" xmlns="http://www.w3.org/2000/svg" xmlns:xlink="http://www.w3.org/1999/xlink" x="0px" y="0px"
	 viewBox="0 0 505.6 505.6" style="enable-background:new 0 0 505.6 505.6;" xml:space="preserve">
<style type="text/css">
	.st0{fill:#6989AD;}
</style>
<g>
	<g>
		<g>
			<path class="st0" d="M403.6,411.2c0,0,0-0.8,0.8-0.8c37.6-36,60.8-88,60.8-144.8S442,156.8,404.4,119.2
				C366,80.8,314.8,57.6,257.2,57.6S147.6,80.8,110,118.4S49.2,208,49.2,265.6c0,5.6,0,11.2,0.8,16.8c0,4.8,4,8,8.8,7.2
				c4.8,0,8-4,7.2-8.8c0-2.4,0-4.8,0-7.2h24c4.8,0,8-3.2,8-8s-3.2-8-8-8H65.2C66.8,210.4,86,168,115.6,136l16.8,16.8
				c1.6,1.6,4,2.4,5.6,2.4s4-0.8,5.6-2.4c3.2-3.2,3.2-8,0-11.2l-16.8-16.8c32-29.6,75.2-48.8,121.6-50.4v24c0,4.8,3.2,8,8,8
				c4.8,0,8-3.2,8-8v-24C311.6,76,354,95.2,386,124.8l-16.8,16.8c-3.2,3.2-3.2,8,0,11.2c1.6,1.6,4,2.4,5.6,2.4s4-0.8,5.6-2.4
				l16.8-16.8c29.6,32,48.8,75.2,50.4,121.6h-24.8c-4.8,0-8,3.2-8,8s3.2,8,8,8h24.8c-1.6,47.2-20.8,89.6-50.4,121.6l-17.6-17.6
				c-3.2-3.2-8-3.2-11.2,0s-3.2,8,0,11.2l17.6,17.6c-32,29.6-75.2,48.8-121.6,50.4v-24c0-4.8-3.2-8-8-8c-4.8,0-8,3.2-8,8v24
				c-10.4-0.8-20.8-1.6-30.4-4c-4-0.8-8.8,1.6-9.6,6.4c-0.8,4,1.6,8.8,6.4,9.6c13.6,2.4,27.2,4,41.6,4c33.6,0,65.6-8,93.6-22.4
				c0,0.8,0.8,1.6,1.6,1.6l50.4,50.4c1.6,1.6,4,2.4,5.6,2.4s4-0.8,5.6-2.4c3.2-3.2,3.2-8,0-11.2l-48.8-48.8
				c13.6-8.8,26.4-18.4,38.4-30.4C402.8,412,403.6,412,403.6,411.2z"/>
			<path class="st0" d="M38.8,157.6c1.6,1.6,3.2,2.4,5.6,2.4c2.4,0,4-0.8,5.6-2.4L165.2,35.2c1.6-1.6,2.4-4,2.4-5.6
				c0-2.4-0.8-4-2.4-5.6C147.6,8.8,125.2,0,102,0C76.4,0,50.8,10.4,33.2,28.8C16.4,46.4,7.6,69.6,8.4,94.4
				C9.2,118.4,20.4,141.6,38.8,157.6z M44.4,40c14.4-15.2,35.2-24,56.8-24c16.8,0,32.8,5.6,46.4,15.2L42.8,140
				c-12-12.8-18.4-29.6-19.2-46.4C22.8,73.6,30,54.4,44.4,40z"/>
			<path class="st0" d="M479.6,28.8C462,10.4,437.2,0,410.8,0c-24,0-46.4,8.8-63.2,24c-1.6,1.6-2.4,3.2-2.4,5.6s0.8,4,2.4,5.6
				l116.8,121.6c-0.8,1.6,1.6,3.2,4,3.2c1.6,0,4-0.8,5.6-2.4c18.4-16.8,28.8-39.2,30.4-63.2C505.2,70.4,496.4,47.2,479.6,28.8z
				 M487.6,93.6c-0.8,17.6-7.2,33.6-19.2,46.4L363.6,30.4C376.4,20.8,393.2,16,410,16c21.6,0,42.4,8.8,56.8,24
				C481.2,54.4,488.4,73.6,487.6,93.6z"/>
			<path class="st0" d="M257.2,137.6c-4.8,0-8,3.2-8,8V188c-0.8,0-1.6,0-2.4,0l2.4,15.2v62.4c0,4.8,3.2,8,8,8h61.6
				c0,0.8-0.8,2.4-0.8,3.2l16,4c0.8-2.4,0.8-4.8,1.6-6.4h25.6c4.8,0,8-3.2,8-8s-3.2-8-8-8h-96V145.6
				C265.2,140.8,262,137.6,257.2,137.6z"/>
			<path class="st0" d="M123.6,372l-58.4,58.4L54.8,420c-3.2-3.2-8-3.2-11.2,0s-3.2,8,0,11.2l16,16c1.6,1.6,3.2,2.4,5.6,2.4
				s4-0.8,5.6-2.4l64-64c3.2-3.2,3.2-8,0-11.2S126.8,368.8,123.6,372z"/>
			<path class="st0" d="M204.4,362.4c-4-1.6-8.8,0-10.4,4l-5.6,12c-4.8-13.6-12.8-26.4-23.2-36.8c-37.6-37.6-98.4-37.6-136,0
				c-18.4,18.4-28,42.4-28,68s9.6,49.6,28,68c19.2,18.4,43.2,28,68,28s49.6-9.6,68-28c3.2-3.2,3.2-8,0-11.2s-8-3.2-11.2,0
				c-31.2,31.2-82.4,31.2-113.6,0c-15.2-15.2-23.2-35.2-23.2-56.8c0-21.6,8-41.6,23.2-56.8c31.2-31.2,82.4-31.2,113.6,0
				c9.6,9.6,16.8,21.6,20.8,35.2l-17.6-9.6c-4-2.4-8.8-0.8-11.2,3.2s-0.8,8.8,3.2,11.2l32,16.8h0.8c0,0,0,0,0.8,0s1.6,0,2.4,0
				c0,0,0,0,0.8,0s0.8,0,1.6,0c0,0,0,0,0.8,0s0.8-0.8,1.6-0.8s0.8-0.8,0.8-0.8c0.8-0.8,0.8-0.8,0.8-1.6l0.8-0.8l16-32.8
				C210,368.8,208.4,364,204.4,362.4z"/>
			<path class="st0" d="M318,311.2l-12.8-9.6c-3.2,3.2-6.4,6.4-10.4,9.6l9.6,12.8C310,320,314,316,318,311.2z"/>
			<path class="st0" d="M277.2,320l4.8,15.2c5.6-1.6,11.2-4,16-7.2l-8-13.6C286,316.8,281.2,318.4,277.2,320z"/>
			<path class="st0" d="M270,204c4.8,0.8,8.8,2.4,13.6,4l5.6-14.4c-5.6-2.4-11.2-4-16.8-4.8L270,204z"/>
			<path class="st0" d="M255.6,338.4c1.6,0,3.2,0,4,0c4.8,0,8.8,0,13.6-0.8l-2.4-16c-4.8,0.8-9.6,0.8-13.6,0.8L255.6,338.4z"/>
			<path class="st0" d="M230,332.8c5.6,2.4,11.2,4,16.8,4.8l2.4-16c-4.8-0.8-8.8-2.4-13.6-4L230,332.8z"/>
			<path class="st0" d="M330.8,288.8l-15.2-5.6c-1.6,4-4,8.8-6.4,12l13.6,8.8C326,299.2,329.2,294.4,330.8,288.8z"/>
			<path class="st0" d="M188.4,237.6l15.2,5.6c1.6-4,4-8.8,6.4-12l-13.6-8.8C193.2,226.4,190.8,232,188.4,237.6z"/>
			<path class="st0" d="M202,214.4l12,10.4c3.2-3.2,6.4-6.4,10.4-9.6l-9.6-12.8C210,205.6,205.2,210.4,202,214.4z"/>
			<path class="st0" d="M184.4,264v1.6l8,0.8h8.8v-4c0-4.8,0-8.8,0.8-12.8l-16-3.2C184.4,252,184.4,258.4,184.4,264z"/>
			<path class="st0" d="M305.2,224c3.2,3.2,5.6,7.2,8,11.2l14.4-7.2c-2.4-5.6-5.6-10.4-9.6-14.4L305.2,224z"/>
			<path class="st0" d="M222,197.6l8,13.6c4-2.4,8-4,12.8-5.6l-4.8-15.2C232.4,192,226.8,194.4,222,197.6z"/>
			<path class="st0" d="M188.4,288l15.2-4.8c-1.6-4-2.4-8.8-3.2-13.6l-16,1.6C185.2,276.8,186.8,282.4,188.4,288z"/>
			<path class="st0" d="M334.8,253.6c-0.8-5.6-2.4-11.2-4-16.8l-15.2,5.6c1.6,4,2.4,8.8,3.2,13.6L334.8,253.6z"/>
			<path class="st0" d="M230,314.4c-4-2.4-8-4.8-11.2-8l-11.2,12c4,4,8.8,7.2,14.4,10.4L230,314.4z"/>
			<path class="st0" d="M289.2,211.2c4,2.4,8,4.8,11.2,8l11.2-12c-4-4-8.8-7.2-14.4-10.4L289.2,211.2z"/>
			<path class="st0" d="M191.6,297.6c2.4,5.6,5.6,10.4,9.6,14.4l12.8-10.4c-3.2-3.2-5.6-7.2-8-11.2L191.6,297.6z"/>
		</g>
	</g>
</g>
</svg>
