<?xml version="1.0" encoding="utf-8"?>
<!-- Generator: Adobe Illustrator 23.0.0, SVG Export Plug-In . SVG Version: 6.00 Build 0)  -->
<svg version="1.1" id="Capa_1" xmlns="http://www.w3.org/2000/svg" xmlns:xlink="http://www.w3.org/1999/xlink" x="0px" y="0px"
	 viewBox="0 0 512 512" style="enable-background:new 0 0 512 512;" xml:space="preserve">
<style type="text/css">
	.st0{fill:#507298;}
</style>
<g>
	<g>
		<path class="st0" d="M437,75C388.7,26.6,324.4,0,256,0S123.3,26.6,75,75S0,187.6,0,256s26.6,132.7,75,181
			c48.4,48.4,112.6,75,181,75s132.7-26.6,181-75c48.4-48.4,75-112.6,75-181S485.4,123.3,437,75z M256,494.7
			C124.4,494.7,17.3,387.6,17.3,256C17.3,124.4,124.4,17.3,256,17.3c131.6,0,238.7,107.1,238.7,238.7
			C494.7,387.6,387.6,494.7,256,494.7z"/>
	</g>
</g>
<g>
	<g>
		<path class="st0" d="M256,45.4C139.9,45.4,45.4,139.9,45.4,256S139.9,466.6,256,466.6S466.6,372.1,466.6,256
			C466.6,139.9,372.1,45.4,256,45.4z M256,449.2c-106.6,0-193.2-86.7-193.2-193.2S149.4,62.8,256,62.8
			c106.6,0,193.2,86.7,193.2,193.2C449.2,362.6,362.6,449.2,256,449.2z"/>
	</g>
</g>
<g>
	<g>
		<path class="st0" d="M362,354.1l-131-131c-1.8-1.8-4.6-1.8-6.4,0c-1.8,1.8-1.8,4.6,0,6.4l131,131c0.9,0.9,2,1.3,3.2,1.3
			c1.2,0,2.3-0.4,3.2-1.3C363.7,358.7,363.7,355.8,362,354.1z"/>
	</g>
</g>
<g>
	<g>
		<path class="st0" d="M262.7,236.8V130.6c0-3.7-3-6.7-6.7-6.7c-3.7,0-6.7,3-6.7,6.7v106.1c-5.1,1.8-9.2,5.5-11.6,10.3h-81
			c-5,0-9,4-9,9c0,5,4,9,9,9h81c3.3,6.8,10.3,11.5,18.3,11.5c11.3,0,20.5-9.2,20.5-20.5C276.5,247.1,270.7,239.6,262.7,236.8z"/>
	</g>
</g>
<g>
	<g>
		<circle class="st0" cx="256" cy="256" r="11.5"/>
	</g>
</g>
<g>
	<g>
		<circle class="st0" cx="256" cy="85" r="10.1"/>
	</g>
</g>
<g>
	<g>
		<circle class="st0" cx="256" cy="427" r="10.1"/>
	</g>
</g>
<g>
	<g>
		<circle class="st0" cx="427" cy="256" r="10.1"/>
	</g>
</g>
<g>
	<g>
		<circle class="st0" cx="85" cy="256" r="10.1"/>
	</g>
</g>
</svg>
