<?xml version="1.0" encoding="utf-8"?>
<!-- Generator: Adobe Illustrator 25.3.1, SVG Export Plug-In . SVG Version: 6.00 Build 0)  -->
<svg version="1.1" id="Capa_1" xmlns="http://www.w3.org/2000/svg" xmlns:xlink="http://www.w3.org/1999/xlink" x="0px" y="0px"
	 viewBox="0 0 512 512" style="enable-background:new 0 0 512 512;" xml:space="preserve">
<style type="text/css">
	.st0{fill:#FFFFFF;}
</style>
<g>
	<g>
		<path class="st0" d="M369.2,357.5c5.9-12.3,0.7-27.1-11.7-33c-0.8-0.4-1.7-0.7-2.5-1c0.1-0.5,0.1-0.9,0.1-1.4v-57.8
			c0-4.6-3.7-8.3-8.3-8.3c-4.6,0-8.3,3.7-8.3,8.3v57.8c0,0.5,0,0.9,0.1,1.4c-12.9,4.5-19.8,18.6-15.3,31.5
			c4.5,12.9,18.6,19.8,31.5,15.3c0.9-0.3,1.8-0.7,2.7-1.1l24.8,24.8c3.2,3.2,8.5,3.2,11.7,0c3.2-3.2,3.2-8.5,0-11.7L369.2,357.5z
			 M338.6,346.8c0-4.6,3.7-8.3,8.3-8.3c4.6,0,8.3,3.7,8.3,8.3s-3.7,8.3-8.3,8.3C342.3,355.1,338.6,351.4,338.6,346.8z"/>
		<path class="st0" d="M412.9,195.5V53.7c0-16-12.9-28.9-28.9-28.9h-4.1V8.3c0-4.6-3.7-8.3-8.3-8.3h-33c-4.6,0-8.3,3.7-8.3,8.3v16.5
			h-49.5V8.3c0-4.6-3.7-8.3-8.3-8.3h-33c-4.6,0-8.3,3.7-8.3,8.3v16.5h-49.5V8.3c0-4.6-3.7-8.3-8.3-8.3h-33c-4.6,0-8.3,3.7-8.3,8.3
			v16.5H82.6V8.3c0-4.6-3.7-8.3-8.3-8.3h-33C36.7,0,33,3.7,33,8.3v16.5h-4.1C12.9,24.8,0,37.7,0,53.7v371.6
			c0,16,12.9,28.9,28.9,28.9h192.5c31.3,36.7,77.2,57.8,125.4,57.8c91.1,0,165.2-74.1,165.2-165.2C512,279.2,471.2,221,412.9,195.5z
			 M346.8,16.5h16.5v33h-16.5V16.5z M247.7,16.5h16.5v33h-16.5V16.5z M148.6,16.5h16.5v33h-16.5V16.5z M49.5,16.5h16.5v33H49.5V16.5
			z M16.5,53.7c0-6.8,5.5-12.4,12.4-12.4H33v16.5c0,4.6,3.7,8.3,8.3,8.3h33c4.6,0,8.3-3.7,8.3-8.3V41.3h49.5v16.5
			c0,4.6,3.7,8.3,8.3,8.3h33c4.6,0,8.3-3.7,8.3-8.3V41.3h49.5v16.5c0,4.6,3.7,8.3,8.3,8.3h33c4.6,0,8.3-3.7,8.3-8.3V41.3h49.5v16.5
			c0,4.6,3.7,8.3,8.3,8.3h33c4.6,0,8.3-3.7,8.3-8.3V41.3h4.1c6.8,0,12.4,5.5,12.4,12.4v20.6H16.5V53.7z M28.9,437.7
			c-6.8,0-12.4-5.5-12.4-12.4V90.8h379.9v98.4c-8.1-2.6-16.4-4.5-24.8-5.7v-18.4c0-4.6-3.7-8.3-8.3-8.3h-33c-4.6,0-8.3,3.7-8.3,8.3
			v18.4c-79.4,12-140.4,80.7-140.4,163.3c0,32.3,9.5,63.9,27.3,90.8H28.9z M355.1,173.4v8.3h-16.5v-8.3H355.1z M346.8,495.5
			c-82,0-148.6-66.7-148.6-148.6s66.7-148.6,148.6-148.6s148.6,66.7,148.6,148.6S428.8,495.5,346.8,495.5z"/>
		<path class="st0" d="M346.8,214.7c-73,0-132.1,59.2-132.1,132.1S273.9,479,346.8,479S479,419.8,479,346.8
			C478.9,273.9,419.8,214.8,346.8,214.7z M355.1,462.2v-8c0-4.6-3.7-8.3-8.3-8.3c-4.6,0-8.3,3.7-8.3,8.3v8
			c-57.3-4.2-102.9-49.8-107.1-107.1h8c4.6,0,8.3-3.7,8.3-8.3s-3.7-8.3-8.3-8.3h-8c4.2-57.3,49.8-102.9,107.1-107.1v8
			c0,4.6,3.7,8.3,8.3,8.3c4.6,0,8.3-3.7,8.3-8.3v-8c57.3,4.2,102.9,49.8,107.1,107.1h-8c-4.6,0-8.3,3.7-8.3,8.3s3.7,8.3,8.3,8.3h8
			C458,412.4,412.4,458,355.1,462.2z"/>
	</g>
</g>
</svg>
