<svg width="493" height="483" viewBox="0 0 493 483" fill="none" xmlns="http://www.w3.org/2000/svg">
<path fill-rule="evenodd" clip-rule="evenodd" d="M73.383 2.455L70.928 4.909L70.872 40.705L70.817 76.5L56.312 88C41.426 99.802 35.548 106.492 32.744 114.824C31.859 117.454 31.413 130.857 31.177 161.918L30.847 205.336L15.761 224.208C7.464 234.588 0.845 243.207 1.052 243.362C1.259 243.516 4.057 245.747 7.269 248.321L13.111 253L29.769 232.25L46.428 211.5L46.928 166L47.428 120.5L49.928 116.038C51.485 113.258 55.822 108.813 61.428 104.251L70.428 96.927L70.928 150.553L71.428 204.178L73.789 206.089C76.166 208.013 79.429 208.512 82.337 207.397C83.201 207.065 97.451 188.165 114.003 165.397C130.555 142.629 144.444 124 144.867 124C146.297 124 150.724 128.704 152.5 132.113C157.892 142.458 156.379 149.154 144.658 166.823L135.584 180.5L133.797 191.094C130.921 208.149 126.52 218.798 117.398 230.783C109.182 241.577 100.578 248.05 81.91 257.48L65.314 265.864L35.919 313.682C19.751 339.982 5.056 363.816 3.262 366.646L0 371.792L6.714 375.892C12.943 379.696 13.522 379.866 14.723 378.246C15.435 377.286 28.26 356.598 43.223 332.273L70.428 288.046L70.928 382.111L71.428 476.177L73.789 478.089C76.089 479.951 79.906 480 222.928 480C361.277 480 369.823 479.899 371.736 478.25C372.852 477.287 387.121 461.425 403.444 443C419.767 424.575 433.42 409.386 433.784 409.247C434.148 409.108 442.762 425.645 452.926 445.997C463.09 466.349 471.762 483 472.196 483C472.884 483 484.917 477.216 485.735 476.491C485.904 476.342 474.992 454.123 461.486 427.117L436.931 378.014L421.68 370.394C399.035 359.08 389.865 351.693 380.512 337.237C373.393 326.231 369.279 314.201 367.436 299C366.869 294.326 365.523 291.614 358.478 280.951C353.918 274.049 349.397 266.875 348.432 265.009C345.87 260.054 346.089 250.565 348.892 245.071C351.208 240.53 355.157 236 356.798 236C357.326 236 371.301 254.629 387.853 277.397C404.405 300.165 418.655 319.065 419.519 319.397C422.725 320.627 426.087 319.931 428.473 317.545L430.928 315.091V263.104C430.928 232.493 431.307 210.884 431.849 210.549C433.474 209.544 449.271 223.309 451.928 228.045L454.428 232.5L454.928 278L455.428 323.5L467.979 340.144L480.53 356.787L486.373 352.416C489.587 350.012 492.437 347.825 492.706 347.555C492.976 347.286 488.186 340.367 482.062 332.179L470.928 317.293V275.736C470.928 237.373 470.778 233.698 468.982 227.927C466.052 218.513 461.171 212.299 449.362 202.948C443.584 198.373 439.046 194.15 439.279 193.565C439.511 192.979 448.823 172.7 459.971 148.5C481.888 100.925 482.712 98.444 479.917 88.462C475.863 73.982 457.564 66.236 444.016 73.265L438.928 75.904V40.407V4.909L436.473 2.455L434.019 0H254.928H75.837L73.383 2.455ZM422.928 60.546V105.092L397.776 159.796C383.943 189.883 371.753 216.456 370.687 218.847L368.748 223.195L365.453 219.597C360.813 214.532 357.849 214.772 349.798 220.866C341.629 227.05 337.254 232.046 334.238 238.634C328.194 251.835 329.488 265.847 337.971 279.067L340.917 283.658L321.923 324.933L302.928 366.207V384.649C302.928 402.896 302.954 403.117 305.383 405.545C306.858 407.021 308.952 407.982 310.633 407.955C312.17 407.929 321.501 403.767 331.367 398.705L349.307 389.5L358.751 368.83L368.196 348.159L371.892 352.83C381.842 365.402 393.154 374.085 411.704 383.388C418.47 386.781 422.928 389.609 422.928 390.508C422.928 391.797 418.905 392 393.383 392H363.837L361.383 394.455L358.928 396.909V430.455V464H222.928H86.928V368.513V273.025L94.178 269.374C125.219 253.743 145.942 225.515 149.506 194.01C150.137 188.432 151.069 186.507 158.988 174.408C169.215 158.785 171.187 153.706 171.135 143.124C171.091 134.223 168.493 126.208 163.555 119.734C159.752 114.747 148.368 105.239 145.178 104.385C139.838 102.956 138.687 104.202 114.341 137.746C101.265 155.761 89.749 171.573 88.748 172.885C86.983 175.197 86.928 172.847 86.928 95.635V16H254.928H422.928V60.546ZM243.04 41.581C217.685 48.4 201.998 74.653 208.459 99.458C213.406 118.451 229.137 132.539 248.516 135.33C281.414 140.07 309.762 108.659 301.436 76.693C294.685 50.774 268.161 34.825 243.04 41.581ZM268.428 59.088C274.744 62.075 280.769 68.063 283.934 74.5C287.422 81.592 287.403 94.244 283.894 101.5C280.81 107.876 274.804 113.882 268.428 116.966C261.172 120.475 248.52 120.494 241.428 117.006C235.053 113.872 229.056 107.875 225.922 101.5C223.884 97.356 223.468 95.045 223.493 88C223.519 80.797 223.928 78.721 226.171 74.393C227.626 71.583 229.93 67.963 231.29 66.347C233.98 63.149 242.484 58.141 247.366 56.879C252.804 55.472 263.056 56.547 268.428 59.088ZM459.38 87.415C463.295 89.051 464.928 91.578 464.928 95.999C464.928 99.508 461.172 109 459.783 109C458.489 109 442.928 101.085 442.928 100.427C442.928 100.124 444.107 97.385 445.547 94.34C447.435 90.349 449.041 88.423 451.297 87.441C455.255 85.718 455.317 85.718 459.38 87.415ZM444.95 120.011C449.338 122.217 452.928 124.347 452.928 124.744C452.928 125.764 393.87 254.322 392.94 255.327C392.519 255.781 389.344 252.232 385.884 247.439C380.072 239.388 379.675 238.508 380.67 235.873C383.588 228.143 435.532 116.022 436.2 116.012C436.625 116.005 440.562 117.805 444.95 120.011ZM190.928 160V168H282.928H374.928V160V152H282.928H190.928V160ZM166.928 200V208H262.928H358.928V200V192H262.928H166.928V200ZM150.928 240V248H234.928H318.928V240V232H234.928H150.928V240ZM414.928 267.723V287.445L409.847 280.473C407.052 276.638 404.52 272.913 404.219 272.195C403.748 271.072 413.629 248 414.581 248C414.772 248 414.928 256.875 414.928 267.723ZM118.928 280V288H218.928H318.928V280V272H218.928H118.928V280ZM356.231 323.175L358.61 330.668L347.919 354.084L337.228 377.5L328.078 382.29L318.928 387.08V378.404V369.728L332.087 341.114C339.325 325.376 346.601 309.575 348.255 306L351.264 299.5L352.558 307.591C353.269 312.041 354.922 319.053 356.231 323.175ZM118.928 320V328H210.928H302.928V320V312H210.928H118.928V320ZM118.928 360V368H202.928H286.928V360V352H202.928H118.928V360ZM118.928 400V408H158.928H198.928V400V392H158.928H118.928V400ZM222.928 400V408H254.928H286.928V400V392H254.928H222.928V400ZM410.286 411.25C408.617 413.038 400.164 422.488 391.502 432.25C382.839 442.012 375.566 450 375.34 450C375.113 450 374.928 440.55 374.928 429V408H394.124H413.32L410.286 411.25ZM134.928 432V440H158.928H182.928V432V424H158.928H134.928V432ZM230.928 432V440H254.928H278.928V432V424H254.928H230.928V432Z" fill="#6989AD"/>
</svg>
