<svg width="496" height="496" viewBox="0 0 496 496" fill="none" xmlns="http://www.w3.org/2000/svg">
<path fill-rule="evenodd" clip-rule="evenodd" d="M210.558 2.25C208.246 4.287 207.719 6.301 204.996 23.5C203.342 33.95 201.784 43.405 201.535 44.51C201.176 46.106 199.206 47.01 191.992 48.893C179.999 52.021 159.761 60.306 148.267 66.791C143.189 69.656 138.766 72 138.438 72C138.11 72 130.789 66.892 122.17 60.648C103.866 47.389 102.793 46.763 99.7 47.539C96.814 48.264 48.447 96.644 47.542 99.712C46.677 102.644 47.397 103.878 60.648 122.17C66.892 130.789 72 138.11 72 138.438C72 138.766 69.656 143.189 66.791 148.267C60.306 159.761 52.021 179.999 48.893 191.992C47.01 199.206 46.106 201.176 44.51 201.535C43.405 201.784 33.95 203.342 23.5 204.996C6.301 207.719 4.287 208.246 2.25 210.558C0.0079999 213.102 0 213.243 0 248C0 282.759 0.0079999 282.898 2.25 285.437C4.285 287.743 6.314 288.273 23.5 290.989C33.95 292.641 43.405 294.2 44.51 294.455C46.104 294.822 47.013 296.804 48.893 304.008C52.021 316.001 60.306 336.239 66.791 347.733C69.656 352.811 72 357.234 72 357.562C72 357.89 66.892 365.211 60.648 373.83C47.397 392.122 46.677 393.356 47.542 396.288C48.447 399.356 96.814 447.736 99.7 448.461C102.797 449.238 103.853 448.621 122.376 435.202L138.252 423.701L144.876 427.409C160.18 435.976 179.779 444.073 193.789 447.619C199.442 449.049 201.18 449.916 201.533 451.482C201.783 452.592 203.342 462.05 204.996 472.5C207.719 489.699 208.246 491.713 210.558 493.75C213.102 495.992 213.243 496 248 496C282.759 496 282.898 495.992 285.438 493.75C287.706 491.748 288.266 489.738 290.523 475.5C291.918 466.7 293.303 458.28 293.601 456.789C294.134 454.115 294.225 454.167 300.223 460.579C324.35 486.371 362.443 499.813 397.566 494.928C459.326 486.337 503.432 428.581 494.928 367.434C491.443 342.378 478.436 316.927 460.579 300.223C454.167 294.225 454.115 294.134 456.789 293.601C458.28 293.303 466.7 291.918 475.5 290.523C489.738 288.266 491.748 287.706 493.75 285.438C495.992 282.898 496 282.759 496 248C496 213.243 495.992 213.102 493.75 210.558C491.713 208.246 489.699 207.719 472.5 204.996C462.05 203.342 452.592 201.783 451.482 201.533C449.916 201.18 449.049 199.442 447.619 193.789C444.073 179.779 435.976 160.18 427.409 144.876L423.701 138.252L435.202 122.376C448.611 103.866 449.324 102.648 448.458 99.712C447.553 96.644 399.186 48.264 396.3 47.539C393.199 46.761 392.127 47.389 373.648 60.811L357.797 72.325L351.148 68.604C335.816 60.022 316.23 51.929 302.211 48.381C296.558 46.951 294.82 46.084 294.467 44.518C294.217 43.408 292.658 33.95 291.004 23.5C288.281 6.301 287.754 4.287 285.442 2.25C282.898 0.0079999 282.757 0 248 0C213.243 0 213.102 0.0079999 210.558 2.25ZM276.853 36.25C279.217 50.946 280.59 56.988 281.86 58.278C282.823 59.256 288.536 61.355 294.556 62.943C314.311 68.154 329.927 74.636 346.388 84.459C351.495 87.507 356.781 90 358.135 90C359.69 90 366.775 85.537 377.401 77.864L394.207 65.727L412.103 83.603C421.947 93.435 429.99 101.709 429.977 101.99C429.965 102.27 424.565 109.904 417.977 118.954C410.325 129.466 406 136.302 406 137.885C406 139.247 408.678 144.893 411.951 150.431C421.85 167.181 427.835 181.647 433.057 201.444C434.645 207.464 436.744 213.177 437.722 214.141C439.007 215.407 444.796 216.741 458.587 218.947C469.085 220.626 478.198 222 478.837 222C479.691 222 480 228.907 480 248C480 267.093 479.691 274 478.837 274C475.008 274 439.532 280.275 438.019 281.22C436.527 282.152 434.677 281.674 428.043 278.641C423.564 276.594 417.11 274.187 413.7 273.293L407.5 271.667L407.473 248.583C407.449 228.529 407.158 224.22 405.254 215.741C397.952 183.22 384.266 158.201 361.046 134.921C337.763 111.578 310.419 96.825 278.346 90.301C264.678 87.521 229.084 87.782 215.741 90.759C183.288 98.002 158.131 111.76 134.945 134.945C111.764 158.127 98.03 183.237 90.752 215.741C88.86 224.195 88.567 228.51 88.567 248C88.567 272.765 89.648 280.199 96.004 299.17C111.632 345.819 150.181 384.368 196.83 399.996C215.922 406.393 223.19 407.443 248.583 407.473L271.667 407.5L273.293 413.7C274.187 417.11 276.594 423.564 278.641 428.043C281.669 434.666 282.151 436.529 281.223 438.014C280.596 439.019 278.623 448.876 276.84 459.92L273.597 480H247.799C228.858 480 222 479.691 222 478.837C222 478.198 220.637 469.085 218.972 458.587C215.405 436.102 215.462 436.193 203.332 433.496C186.601 429.777 168.145 422.267 150.747 412.098C145.009 408.744 139.211 406 137.861 406C136.309 406 129.364 410.4 118.954 417.977C109.904 424.565 102.27 429.965 101.99 429.977C101.709 429.99 93.434 421.945 83.6 412.1L65.721 394.2L68.087 390.85C69.389 389.008 74.851 381.456 80.227 374.068C86.401 365.583 90 359.715 90 358.137C90 356.762 87.322 351.107 84.049 345.569C74.15 328.819 68.165 314.353 62.943 294.556C61.355 288.536 59.256 282.823 58.278 281.86C56.988 280.59 50.946 279.217 36.25 276.853L16 273.597V247.993V222.39L36.25 219.161C51.14 216.786 56.971 215.463 58.278 214.16C59.256 213.186 61.355 207.464 62.943 201.444C68.165 181.647 74.15 167.181 84.049 150.431C87.322 144.893 90 139.247 90 137.885C90 136.302 85.675 129.466 78.023 118.954C71.435 109.904 66.035 102.27 66.023 101.99C66.01 101.709 74.055 93.434 83.9 83.6L101.8 65.721L105.15 68.087C106.992 69.389 114.544 74.851 121.932 80.227C130.335 86.341 136.291 90 137.839 90C139.201 90 145.007 87.258 150.741 83.906C168.014 73.81 192.09 64.298 207.246 61.582C214.846 60.22 215.6 58.666 218.972 37.413C220.637 26.915 222 17.802 222 17.163C222 16.309 228.858 16 247.799 16H273.597L276.853 36.25ZM277 106.373C325.828 117.616 364.258 149.845 382.071 194.489C388.341 210.205 391.13 223.803 391.729 241.59C392.027 250.439 391.952 260.227 391.563 263.34L390.856 269H381.559C369.853 269 356.944 271.218 346 275.108C341.325 276.771 336.712 278.379 335.75 278.682C334.167 279.181 334 278.321 334 269.654C334 256.496 331.728 250.552 323.588 242.415C314.32 233.152 300.011 227.38 277.767 223.93L270.034 222.731L275.543 216.78C284.965 206.603 289.837 194.732 290.714 179.811C291.399 168.162 289.954 159.765 285.934 152.04C282.417 145.282 280.794 143.356 274.681 138.69C261.166 128.373 234.883 128.337 221.417 138.615C215.316 143.273 212.653 146.416 209.655 152.5C206.017 159.885 204.625 168.582 205.286 179.811C206.164 194.741 211.035 206.603 220.474 216.799L226.002 222.769L220.251 223.481C210.466 224.693 192.838 229.573 185.499 233.102C175.946 237.696 167.069 246.51 164.162 254.288C162.075 259.873 162 261.502 162 300.965V341.855L164.635 343.927C167.226 345.966 168.157 346 220.941 346H274.612L272.224 355.25C270.572 361.645 269.663 368.572 269.278 377.696L268.721 390.891L263.2 391.581C260.164 391.96 250.439 392.027 241.59 391.729C228.136 391.276 223.592 390.695 213.851 388.187C186.955 381.263 164.836 368.806 146.015 349.985C127.266 331.236 114.939 309.395 107.729 282.149C104.759 270.926 104.644 269.713 104.573 249C104.513 231.386 104.836 226.054 106.36 219.5C115.816 178.824 136.801 148.301 170.258 126.556C187.302 115.478 208.318 107.694 229.5 104.612C236.202 103.637 270.667 104.915 277 106.373ZM263.322 150.343C272.052 155.459 275.619 164.347 274.747 178.815C273.542 198.806 262.331 213.231 248 213.231C237.928 213.231 228.82 205.618 223.796 193C222.005 188.501 221.596 185.406 221.553 176C221.506 165.882 221.783 163.926 223.852 159.723C228.402 150.483 235.959 146.823 249.549 147.274C257.315 147.532 259.269 147.968 263.322 150.343ZM282.449 240.965C301.098 245.009 310.367 249.628 315.396 257.385C317.879 261.214 318 262.035 318 275.116V288.832L313.75 292.085C311.413 293.874 307.137 297.609 304.25 300.385L299 305.432V293.139C299 280.886 298.991 280.837 296.077 277.923C294.469 276.315 292.422 275 291.527 275C289.056 275 284.321 277.722 283.621 279.545C283.28 280.435 283 291.44 283 304C283 316.56 282.727 327.548 282.393 328.418C281.856 329.818 277.832 330 247.393 330H213V305.582C213 292.152 212.72 280.435 212.379 279.545C211.679 277.722 206.944 275 204.473 275C203.578 275 201.531 276.315 199.923 277.923L197 280.846V305.423V330H187.5H178V295.7V261.4L180.604 257.385C185.929 249.172 197.697 243.83 219 239.954C233.862 237.25 267.81 237.791 282.449 240.965ZM401.5 286.894C420.277 290.789 436.173 299.164 449.819 312.35C463.166 325.248 472.043 340.227 476.711 357.732C480.325 371.286 480.534 392.105 477.19 405.44C470.022 434.016 450.453 457.859 423.807 470.482C409.309 477.349 399.462 479.444 382 479.374C369.685 479.325 366.037 478.926 357.792 476.726C315.023 465.317 285.026 426.474 285.026 382.5C285.026 336.362 317.448 296.63 363 286.948C374.38 284.528 389.995 284.507 401.5 286.894ZM427 331.989C425.075 332.349 422.15 333.368 420.5 334.255C418.85 335.142 406.03 347.37 392.012 361.429L366.524 386.99L356.512 377.096C344.689 365.413 341.674 363.653 333.5 363.657C316.728 363.666 305.293 380.92 312.065 396C314.543 401.519 350.435 438.057 356.5 441.236C362.187 444.216 371.037 444.188 377.205 441.168C380.695 439.46 390.785 429.785 416.3 403.683C435.215 384.332 451.533 366.925 452.562 365C455.26 359.953 455.109 349.799 452.257 344.376C447.471 335.277 436.973 330.129 427 331.989ZM437.349 351.266C438.664 353.027 439.057 354.636 438.609 356.42C438.213 358.001 424.595 372.492 403.729 393.536C377.145 420.347 368.955 428.051 367.06 428.029C365.248 428.007 359.765 423.171 345.769 409.25C335.402 398.938 326.655 389.453 326.332 388.173C325.003 382.909 331.419 377.598 336.159 380.037C337.447 380.7 344.164 386.812 351.086 393.621C362.168 404.521 364.08 406.004 367.086 406.034C370.251 406.066 372.538 403.993 398.5 377.551C413.9 361.867 427.625 348.635 429 348.147C432.197 347.013 434.938 348.037 437.349 351.266Z" fill="#6989AD"/>
</svg>
