<svg width="480" height="480" viewBox="0 0 480 480" fill="none" xmlns="http://www.w3.org/2000/svg">
<path fill-rule="evenodd" clip-rule="evenodd" d="M128 24V48H120H112V61.773V75.547L120 83.5L128 91.453V117.727V144H106.246H84.491L42.246 186.254L0 228.509V354.254V480H240H480V354.246V228.491L437.746 186.246L395.491 144H385.746H376V124V104H344H312V124V144H300H288V108V72H256H224V108V144H204H184V117.727V91.453L192 83.5L200 75.547V61.773V48H192H184V24V0H156H128V24ZM329.5 0.65C314.253 3.111 295.598 10.943 284 19.753C273.625 27.634 273.737 27.215 280.243 33.721L285.836 39.314L290.607 35.115C309.175 18.771 337.366 12.208 362.057 18.482C371.219 20.811 385.426 27.999 392.845 34.06L399.19 39.244L404.659 33.872L410.128 28.5L405.194 23.933C394.81 14.324 380.944 7.001 365.408 2.923C357.6 0.874 336.421 -0.467 329.5 0.65ZM168 32V48H156H144V32V16H156H168V32ZM332.5 32.649C320.628 35.121 311.92 38.915 303.122 45.448L296.745 50.184L302.53 56.03L308.315 61.876L312.407 58.559C328.974 45.13 353.419 44.766 370.698 57.69L376.471 62.008L381.985 56.438L387.5 50.869L383.082 46.9C377.244 41.655 364.209 35.322 355.5 33.499C348.972 32.134 337.084 31.694 332.5 32.649ZM184 66.221C184 67.583 181.788 70.677 178.281 74.221L172.563 80H156.06H139.558L133.779 74.281C130.1 70.641 128 67.733 128 66.281V64H156H184V66.221ZM333.5 65.399C328.129 67.098 323.861 69.391 321.769 71.703C320.111 73.535 320.255 73.82 325.381 78.882L330.719 84.154L334.595 82.077C339.543 79.425 344.22 79.444 349.785 82.138L354.202 84.276L359.736 78.742L365.27 73.208L360.971 70.094C353.217 64.477 342.309 62.613 333.5 65.399ZM272 148V208H280H288V184V160H300H312V184V208H320H328V164V120H344H360V164V208H368H376V184V160H382.256H388.512L420.5 192L452.488 224H311.988H171.488L139.5 192L107.512 160H165.756H224V184V208H232H240V148V88H256H272V148ZM168 120V144H156H144V120V96H156H168V120ZM124.245 199.745L160 235.49V289.745V344H133.684C119.21 344 104.697 344.481 101.434 345.069C80.207 348.892 60.892 368.207 57.069 389.434C56.446 392.889 56 409.7 56 429.684V464H36H16V349.755V235.51L51.745 199.755C71.404 180.09 87.715 164 87.99 164C88.265 164 104.58 180.085 124.245 199.745ZM71.738 204.761L56 220.523V246.261V272H88H120V246.238V220.477L104.239 204.738C95.57 196.082 88.252 189 87.977 189C87.702 189 80.394 196.093 71.738 204.761ZM96.228 219.727L104 227.453V241.727V256H88H72V241.772V227.544L79.727 219.772C83.976 215.497 87.679 212 87.954 212C88.23 212 91.953 215.477 96.228 219.727ZM464 352V464H448H432V400V336H352H272V400V464H224H176V428.145V392.291L185.75 391.718C210.262 390.277 228.67 376.542 237.192 353.336C239.088 348.171 239.384 344.869 239.764 324.631C240.265 297.95 239.782 295.198 233.343 288.037C223.822 277.447 209.723 277.209 199.466 287.466C192.589 294.343 192 296.902 192 319.911C192 338.941 191.981 339.11 189.545 341.545C187.53 343.561 186.1 344 181.545 344H176V292V240H320H464V352ZM221.628 298.537L224.165 301.075L223.833 323.343L223.5 345.612L219.765 353.165C215.267 362.262 209.473 367.933 200.18 372.335L193.5 375.5L149.5 376C109.069 376.459 105.194 376.652 101.724 378.376C96.776 380.835 90.653 387.876 89.176 392.807C88.376 395.478 88 407.479 88 430.366V464H79.944H71.887L72.194 427.195L72.5 390.39L76.235 382.836C80.733 373.738 86.526 368.068 95.82 363.665L102.5 360.5L146.5 360C196.176 359.436 194.59 359.681 201.85 351.433C207.357 345.177 208 341.899 208 320.089C208 301.059 208.019 300.89 210.455 298.455C213.737 295.172 218.297 295.206 221.628 298.537ZM272 312V320H288H304V312V304H288H272V312ZM336 312V320H352H368V312V304H352H336V312ZM400 312V320H416H432V312V304H416H400V312ZM344 408V464H316H288V408V352H316H344V408ZM416 408V464H388H360V408V352H388H416V408ZM160 428V464H132H104V430.455V396.909L106.455 394.455L108.909 392H134.455H160V428Z" fill="#6989AD"/>
</svg>
