<?xml version="1.0" encoding="utf-8"?>
<!-- Generator: Adobe Illustrator 23.0.0, SVG Export Plug-In . SVG Version: 6.00 Build 0)  -->
<svg version="1.1" id="Слой_1" xmlns="http://www.w3.org/2000/svg" xmlns:xlink="http://www.w3.org/1999/xlink" x="0px" y="0px"
	 viewBox="0 0 686.8 679.9" style="enable-background:new 0 0 686.8 679.9;" xml:space="preserve">
<style type="text/css">
	.st0{fill:#6989AD;}
</style>
<g id="surface1">
	<path class="st0" d="M623.8,552.7h-9.7V485c0-5.3-4.3-9.7-9.7-9.7h-29V427c0-5.3-4.3-9.7-9.7-9.7h-29v-48.4c0-5.3-4.3-9.7-9.7-9.7
		h-67.7V59.3c0-5.3-4.3-9.7-9.7-9.7c-5.3,0-9.7,4.3-9.7,9.7v164.5h-19.3V59.3c0-5.3-4.3-9.7-9.7-9.7c-5.3,0-9.7,4.3-9.7,9.7v164.5
		h-19.3V59.3c0-5.3-4.3-9.7-9.7-9.7c-5.3,0-9.7,4.3-9.7,9.7v493.4H207.7V59.3c0-5.3-4.3-9.7-9.7-9.7c-5.3,0-9.7,4.3-9.7,9.7v164.5
		H169V59.3c0-5.3-4.3-9.7-9.7-9.7c-5.3,0-9.7,4.3-9.7,9.7v164.5h-19.3V59.3c0-5.3-4.3-9.7-9.7-9.7c-5.3,0-9.7,4.3-9.7,9.7v493.4
		H62.6c-5.3,0-9.7,4.3-9.7,9.7v58.1c0,5.3,4.3,9.7,9.7,9.7h561.2c5.3,0,9.7-4.3,9.7-9.7v-58.1C633.4,557.1,629.1,552.7,623.8,552.7z
		 M594.7,552.7H459.3v-58.1h135.5V552.7z M556,475.3h-96.8v-38.7H556V475.3z M517.3,378.6v38.7h-58.1v-38.7H517.3z M381.9,243.1
		h58.1v309.6h-58.1V243.1z M130.3,243.1h58.1v309.6h-58.1V243.1z M614.1,610.8H72.3v-38.7h541.8V610.8z"/>
</g>
<rect x="337.1" y="-124.8" transform="matrix(0.7071 0.7071 -0.7071 0.7071 340.7993 -145.5975)" class="st0" width="18.1" height="926.7"/>
<rect x="332" y="-124.8" transform="matrix(-0.7071 0.7071 -0.7071 -0.7071 821.8129 336.671)" class="st0" width="18.3" height="926.7"/>
</svg>
