<svg width="510" height="510" viewBox="0 0 510 510" fill="none" xmlns="http://www.w3.org/2000/svg">
<path fill-rule="evenodd" clip-rule="evenodd" d="M222.775 1.53202C128.687 14.361 51.15 75.12 16.721 163C5.097 192.669 0 220.715 0 255C0 297.797 8.46 333.514 27.412 370.735C66.415 447.334 141.946 499.579 227.211 508.934C239.418 510.274 270.625 510.303 282.5 508.985C401.568 495.775 495.904 401.538 508.934 282.789C510.305 270.296 510.305 239.704 508.934 227.211C502.609 169.561 476.49 115.382 435.125 74.103C394.771 33.834 343.999 9.05802 286.336 1.49902C272.162 -0.358983 236.507 -0.339983 222.775 1.53202ZM285.5 19.633C334.563 25.404 382.908 48.694 419.632 84.25C470.069 133.084 495.665 198.411 491.886 268.656C485.45 388.309 388.92 484.995 269.005 491.897C202.141 495.746 138.837 472.298 90.413 425.746C51.441 388.281 26.314 338.586 19.501 285.5C17.318 268.499 17.318 241.501 19.501 224.5C29.167 149.186 76.011 81.369 143 45.705C187.549 21.988 233.715 13.541 285.5 19.633ZM242.912 106.445C218.683 113.128 203.349 138.724 209.478 162.254C211.812 171.214 214.92 176.841 221.305 183.667C235.425 198.761 256.935 202.654 275.632 193.499C290.736 186.104 302 168.559 302 152.426C302 131.03 287.31 111.896 266.664 106.399C260.349 104.717 249.094 104.739 242.912 106.445ZM267.863 126.089C282.199 133.253 287.886 150.424 280.651 164.703C270.075 185.572 239.925 185.572 229.349 164.703C222.127 150.451 227.605 133.648 241.883 126.257C250.673 121.707 258.985 121.653 267.863 126.089ZM239.856 214.316C224.196 219.654 212.111 233.597 209.021 249.891C207.654 257.096 207.654 359.904 209.021 367.109C212.284 384.319 226.135 398.993 243.5 403.639C249.945 405.363 260.11 405.346 266.664 403.601C283.946 399 297.707 384.366 300.979 367.109C302.346 359.904 302.346 257.096 300.979 249.891C298.682 237.778 289.35 224.22 279.228 218.288C267.972 211.692 252.219 210.102 239.856 214.316ZM269.237 233.293C274.346 236.287 278.043 240.299 281.298 246.384C283.48 250.463 283.503 250.992 283.79 305.856C284.112 367.351 284.084 367.673 277.652 376.098C275.783 378.545 271.842 381.88 268.879 383.521C264.094 386.171 262.561 386.5 255 386.5C247.439 386.5 245.906 386.171 241.121 383.521C238.162 381.882 234.222 378.551 232.364 376.118C226.052 367.852 225.999 367.288 226.011 309.068C226.017 280.156 226.302 254.804 226.645 252.732C227.474 247.716 232.635 239.357 237.127 235.756C242.772 231.232 247.427 229.926 256.592 230.297C263.183 230.564 265.529 231.12 269.237 233.293Z" fill="#6989AD"/>
</svg>
