<svg width="458" height="416" viewBox="0 0 458 416" fill="none" xmlns="http://www.w3.org/2000/svg">
<path fill-rule="evenodd" clip-rule="evenodd" d="M43.0412 0.902571C28.2152 3.81057 13.3512 15.8856 6.22422 30.8126C3.99122 35.4876 1.67522 41.6976 1.07522 44.6116C0.32122 48.2766 -0.00978032 89.2946 0.000219683 177.612C0.0162197 317.682 -0.249782 311.22 6.03722 324.115C12.6302 337.636 24.6972 348.964 38.7852 354.858C44.4212 357.216 50.6142 358.578 65.9542 360.833C124.87 369.492 166.614 383.317 200.879 405.517C212.648 413.143 217.912 415.092 227.056 415.213C233.816 415.302 235.005 415.025 238.165 412.619C245.554 406.995 244.985 421.069 244.985 243.938V84.8636L248.025 83.2916C249.698 82.4266 254.535 79.4406 258.775 76.6556C270.326 69.0696 294.584 57.6506 311.485 51.8446C345.874 40.0306 398.716 29.6856 409.485 32.6586C415.128 34.2166 420.841 39.3086 423.604 45.2416L425.965 50.3126L425.999 150.313C426.018 207.751 426.426 252.015 426.956 254.313C428.729 261.996 438.529 267.951 445.913 265.834C450.622 264.483 453.781 262.196 456.029 258.509C457.927 255.396 457.978 252.645 457.981 152.612C457.984 82.3796 457.64 48.2356 456.895 44.6116C453.54 28.3046 441.049 12.0686 426.565 5.19057C414.682 -0.453431 407.601 -1.08943 387.204 1.65357C328.579 9.53657 274.323 27.7606 239.075 51.4066C230.014 57.4846 228.025 57.3396 216.305 49.7476C181.214 27.0156 129.856 9.89157 72.7432 1.88057C57.1962 -0.300428 50.3302 -0.526429 43.0412 0.902571ZM71.4852 33.8766C122.148 41.3056 168.588 56.8256 198.711 76.3926C203.235 79.3316 208.298 82.4396 209.961 83.3006L212.985 84.8636V229.839C212.985 309.575 212.751 374.813 212.465 374.813C212.179 374.813 210.237 373.735 208.15 372.417C206.062 371.099 200.609 368.138 196.033 365.837C160.867 348.156 121.076 336.551 70.8602 329.331C60.1232 327.787 52.6012 326.173 49.6232 324.773C43.3972 321.846 37.3282 315.746 34.4122 309.484L32.0052 304.313V177.313V50.3126L34.3662 45.2416C36.9302 39.7336 42.7262 34.2706 47.4852 32.8736C52.1852 31.4936 56.4542 31.6726 71.4852 33.8766ZM73.9862 112.936C65.0512 116.499 61.0752 128.241 66.2352 135.823C70.2002 141.648 72.5862 142.666 89.6562 145.813C110.55 149.665 129.155 154.463 148.102 160.885C159.988 164.914 164.167 165.918 167.303 165.497C174.406 164.544 179.913 158.847 180.66 151.677C181.244 146.062 177.836 139.134 173.172 136.457C163.775 131.063 122.057 119.301 94.6682 114.324C79.5712 111.58 77.7012 111.455 73.9862 112.936ZM70.8832 200.083C61.2622 206.51 62.0412 222.317 72.2152 227.105C74.0142 227.952 80.8852 229.601 87.4852 230.77C94.0852 231.939 104.476 234.066 110.576 235.496C123.143 238.441 127.198 238.187 131.991 234.154C140.426 227.057 139.961 215.275 130.985 208.652C126.991 205.705 89.4602 197.813 79.4402 197.813C75.7412 197.813 73.3192 198.455 70.8832 200.083ZM352.325 229.749C335.736 233.815 330.353 254.782 342.973 266.183C357.354 279.176 379.397 267.852 377.776 248.304C376.754 235.987 364.205 226.838 352.325 229.749ZM348.975 301.063C347.157 302.301 344.728 304.583 343.577 306.135C341.534 308.892 341.478 310.059 341.206 355.924C340.895 408.343 340.769 407.259 347.798 412.619C350.67 414.81 352.385 415.313 356.985 415.313C361.585 415.313 363.3 414.81 366.172 412.619C373.201 407.259 373.075 408.343 372.764 355.924C372.492 310.059 372.436 308.892 370.393 306.135C366.846 301.349 362.201 298.813 356.985 298.813C353.753 298.813 351.246 299.517 348.975 301.063Z" fill="white"/>
</svg>
