<?xml version="1.0" encoding="utf-8"?>
<!-- Generator: Adobe Illustrator 23.0.0, SVG Export Plug-In . SVG Version: 6.00 Build 0)  -->
<svg version="1.1" id="Capa_1" xmlns="http://www.w3.org/2000/svg" xmlns:xlink="http://www.w3.org/1999/xlink" x="0px" y="0px"
	 viewBox="0 0 512 512" style="enable-background:new 0 0 512 512;" xml:space="preserve">
<style type="text/css">
	.st0{fill:#6989AD;}
</style>
<g>
	<g>
		<g>
			<path class="st0" d="M255.8,227.6c0.1-0.5,0.1-1,0.1-1.5c0-0.5,0-1-0.1-1.4c-0.1-0.8-0.4-1.5-0.7-2.2c-0.1-0.1-0.1-0.3-0.1-0.4
				c0-0.1-0.1-0.1-0.2-0.2c-0.5-0.9-1.2-1.6-1.9-2.2c-0.1-0.1-0.1-0.1-0.2-0.2c-0.3-0.3-0.6-0.6-1-0.8l-46.8-26.3v-68.4
				c0-0.4-0.1-0.7-0.2-1.1c-0.1-0.6-0.2-1.1-0.3-1.7c-0.1-0.4-0.3-0.8-0.5-1.1c-0.3-0.7-0.7-1.3-1.2-1.8c-0.1-0.1-0.2-0.3-0.3-0.4
				l0,0l0,0c-0.6-0.6-1.2-1-1.9-1.4l-175-96.2c-5.3-2.9-11.7-2.8-16.9,0.3C3.2,23.5,0,29.1,0,35.1v271.1c0,3.1,1.7,5.9,4.3,7.4
				l136.4,76.7l0,0l0,0l0.1,0.1c0.4,0.2,0.7,0.3,1.1,0.4c1.7,0.7,3.5,0.9,5.3,0.4c0.2-0.1,0.4-0.2,0.7-0.3c0.5-0.1,0.9-0.3,1.3-0.5
				l51.2-28.8c0.3-0.2,0.6-0.5,0.8-0.7c0.5-0.3,0.9-0.7,1.4-1.2c0.7-0.9,1.2-1.8,1.6-2.8c0.2-0.6,0.3-1.2,0.4-1.7
				c0.1-0.3,0.2-0.7,0.2-1.1v-26l46.8-26.3c0.3-0.2,0.6-0.5,0.8-0.7c0.5-0.3,0.9-0.7,1.4-1.2c0.7-0.9,1.2-1.8,1.6-2.8
				c0.2-0.6,0.3-1.2,0.4-1.7c0.1-0.3,0.2-0.7,0.2-1.1v-65.1c-0.1-0.5-0.1-0.9-0.3-1.4C255.8,227.9,255.7,227.8,255.8,227.6z
				 M17.1,35.1l161.6,88.8l-33.6,18.9l-128-72C17.1,70.8,17.1,35.1,17.1,35.1z M187.7,138.4v39.8v14.1l-34.1,19.2v-53.9L187.7,138.4
				z M187.7,349.3l-34.1,19.2v-59.3l34.1,19.2V349.3z M187.7,308.7l-38.5-21.6c-0.1-0.1-0.3-0.1-0.4-0.1c-1.1-0.4-2.2-0.7-3.3-0.9
				c-0.2,0-0.3-0.1-0.4-0.1c-0.4,0-0.7,0.1-1.1,0.2c-0.6,0.1-1.2,0.2-1.7,0.4c-1.6,0.5-3,1.6-3.9,3c-0.3,0.3-0.5,0.5-0.7,0.8
				c-0.1,0.1-0.1,0.3-0.1,0.4c-0.2,0.5-0.4,1.1-0.5,1.6c-0.2,0.5-0.3,1.1-0.3,1.7c0,0.2-0.1,0.3-0.1,0.4v73.9L17.1,301.2V90.4
				l119.5,67.2v68.7c0,0.1,0.1,0.3,0.1,0.4c0.1,0.8,0.3,1.6,0.5,2.4c0.1,0.4,0.3,0.7,0.5,1.1c0,0,0,0.1,0,0.1
				c0.1,0.1,0.2,0.2,0.2,0.3c0.5,0.9,1.1,1.6,2,2.2c0.3,0.3,0.7,0.7,1.1,0.9l46.8,26.3L187.7,308.7L187.7,308.7z M196.3,245.2
				l-33.9-19.1l33.9-19.1l33.9,19.1L196.3,245.2z M238.9,289.5l-34.1,19.2V260l34.1-19.2V289.5z"/>
			<path class="st0" d="M503.5,109.3c-5.2-3.1-11.7-3.2-17-0.2L286,222c-0.7,0.4-1.3,0.9-1.9,1.4l0,0c-0.7,0.7-1.2,1.5-1.6,2.4
				c-0.1,0.2-0.2,0.5-0.3,0.7c-0.3,0.8-0.5,1.7-0.5,2.6c0,0.1-0.1,0.2-0.1,0.3v68.3c0,3.2,1.8,6.2,4.7,7.6l46.5,23.2v23.6
				l-46.5,23.2c-0.3,0.2-0.6,0.4-0.8,0.6c-0.4,0.2-0.8,0.5-1.1,0.8c-0.2,0.2-0.3,0.3-0.5,0.5c-0.4,0.7-0.9,1.3-1.4,1.9
				c0,0.1,0,0.2-0.1,0.3c-0.1,0.2-0.2,0.4-0.2,0.6c-0.2,0.9-0.4,1.8-0.6,2.7c0,0.1-0.1,0.2-0.1,0.3v76.8c0,3.2,1.8,6.2,4.7,7.6
				l51.2,25.6c0.1,0.1,0.2,0,0.4,0.1c1.1,0.5,2.3,0.8,3.4,0.8l0,0l0,0l0,0c0.7,0,1.4-0.1,2.1-0.3c0.2-0.1,0.5-0.2,0.7-0.3
				c0.4-0.1,0.7-0.2,1.1-0.4l162.1-83.7c0.3-0.2,0.6-0.5,0.9-0.7c0.5-0.3,1-0.7,1.4-1.1c0.3-0.4,0.6-0.8,0.9-1.3
				c0.3-0.5,0.6-0.9,0.8-1.5c0.2-0.6,0.3-1.1,0.4-1.7c0.1-0.4,0.2-0.8,0.2-1.2V124C512,118,508.8,112.3,503.5,109.3z M298.7,292.4
				v-49.2l34.1,17.1v49.2L298.7,292.4z M332.8,471.6l-34.1-17.1v-57.7l34.1,17.1V471.6z M341.2,399l-32-16l32.1-16.1l31.2,15.6
				L341.2,399z M349.9,352.1v-23.7l34.1-17.9v58.7L349.9,352.1z M494.9,396.5l-145.1,74.9v-57.6l45.7-24l1.2-0.7
				c0.3-0.2,0.5-0.4,0.8-0.7c0.5-0.3,1-0.7,1.4-1.2c1.1-1.2,1.8-2.8,1.9-4.5c0.1-0.3,0.2-0.7,0.2-1v-85.3c0-0.1-0.1-0.2-0.1-0.3
				c-0.2-1.1-0.4-2.2-0.8-3.3c-0.1-0.1,0-0.2-0.1-0.3c-0.2-0.3-0.5-0.6-0.7-0.9c-0.3-0.5-0.7-1-1.1-1.4c-0.9-0.6-1.8-1.2-2.8-1.7
				c-0.6-0.2-1.1-0.3-1.7-0.3c-0.4-0.1-0.8-0.2-1.2-0.2c-0.1,0-0.2,0.1-0.3,0.1c-1.1,0.2-2.2,0.4-3.3,0.8c-0.1,0.1-0.2,0-0.3,0.1
				l-38.7,20.3v-49l145.1-76L494.9,396.5L494.9,396.5z M494.9,164.9l-153.7,80.6L308.3,229l186.6-105L494.9,164.9L494.9,164.9z"/>
		</g>
	</g>
</g>
</svg>
