<svg width="481" height="384" viewBox="0 0 481 384" fill="none" xmlns="http://www.w3.org/2000/svg">
<path fill-rule="evenodd" clip-rule="evenodd" d="M39.9928 1.307C35.0848 2.854 26.7138 11.522 25.2088 16.616C24.2808 19.758 23.9928 52.368 23.9928 154.366C23.9928 277.355 23.8628 288 22.3588 288C14.7328 288 3.51375 296.814 1.20875 304.616C-1.56125 313.992 0.391752 321.467 7.45875 328.534C14.3008 335.375 16.9578 336 39.2228 336H57.7207L59.4768 340.75C69.0518 366.649 93.2998 383.965 119.993 383.965C146.801 383.965 170.893 366.761 180.509 340.75L182.265 336H243.993H305.721L307.477 340.75C317.052 366.649 341.3 383.965 367.993 383.965C394.801 383.965 418.893 366.761 428.509 340.75L430.265 336H444.951C463.126 336 467.123 334.874 473.292 328.012C475.67 325.367 478.15 321.418 478.804 319.236C480.433 313.8 480.474 238.338 478.852 232.922C477.138 227.204 472.956 222.788 459.942 212.962C453.453 208.061 447.901 203.659 447.604 203.18C447.308 202.701 444.082 185.927 440.436 165.904C436.79 145.882 433.242 128.15 432.551 126.5C430.647 121.95 426.209 117.162 421.617 114.706C417.612 112.564 416.435 112.491 380.743 112.204L343.993 111.908V66.32C343.993 33.993 343.647 19.578 342.804 16.764C342.15 14.582 339.67 10.633 337.292 7.988C329.525 -0.652001 341.965 -0.0130026 183.565 0.101997C84.4958 0.173997 42.4678 0.526999 39.9928 1.307ZM359.993 7.856V15.713L366.743 16.343C391.609 18.665 413.33 31.782 427.101 52.793C434.117 63.496 438.41 75.97 439.65 89.25L440.28 96H448.28H456.281L455.621 88.25C453.653 65.143 444.632 45.784 427.993 28.958C417.058 17.901 406.136 10.688 393.287 6.039C384.517 2.866 370.554 0 363.862 0H359.993V7.856ZM325.538 18.455L327.993 20.909V145.22V269.531L321.969 275.861C318.656 279.343 315.27 283.498 314.444 285.096L312.942 288H243.993H175.044L173.414 284.847C172.517 283.112 168.522 278.433 164.537 274.447C140.041 249.951 100.026 250.01 75.3478 274.58C71.4178 278.492 67.4688 283.112 66.5718 284.847L64.9417 288H52.4668H39.9928V154.455V20.909L42.4478 18.455L44.9018 16H183.993H323.084L325.538 18.455ZM359.993 39.779V47.557L367.091 48.675C387.664 51.914 404.074 68.386 407.265 89L408.348 96H416.309H424.269L423.606 89.523C421.437 68.353 407.906 48.683 388.993 39.207C380.757 35.08 369.914 32.053 363.243 32.017L359.993 32V39.779ZM79.9928 136V232H87.9928H95.9928V136V40H87.9928H79.9928V136ZM127.993 136V232H135.993H143.993V136V40H135.993H127.993V136ZM175.993 136V232H183.993H191.993V136V40H183.993H175.993V136ZM223.993 136V232H231.993H239.993V136V40H231.993H223.993V136ZM271.993 136V232H279.993H287.993V136V40H279.993H271.993V136ZM359.993 71.775V79.777L363.734 80.479C368.501 81.373 374.642 87.614 375.558 92.493L376.216 96H384.218H392.22L391.518 91.25C390.644 85.332 385.626 75.711 381.684 72.393C377.218 68.636 370.01 65.275 364.712 64.481L359.993 63.773V71.775ZM415.498 130.251C417.931 132.344 418.53 134.77 424.054 164.912C427.32 182.738 429.993 197.925 429.993 198.661C429.993 199.661 428.091 200 422.493 200C418.368 200 414.983 199.887 414.972 199.75C414.96 199.613 413.438 189.216 411.59 176.648C408.05 152.566 407.524 150.981 401.61 146.562C399.005 144.615 397.317 144.483 371.422 144.205L343.993 143.91V135.955V128H378.437C412.718 128 412.894 128.011 415.498 130.251ZM393.38 162.75C393.68 164.262 394.851 172.25 395.983 180.5C397.115 188.75 398.264 196.512 398.536 197.75L399.031 200H371.512H343.993V180V160H368.414H392.834L393.38 162.75ZM450.045 225.539C457.065 230.785 463.075 235.771 463.401 236.62C463.727 237.469 463.993 249.377 463.993 263.082V288H443.519H423.044L421.414 284.847C420.517 283.112 416.568 278.486 412.638 274.565C404.209 266.156 392.616 259.876 380.923 257.384C371.662 255.411 357.835 256.017 349.738 258.75L343.993 260.69V238.345V216H390.637H437.28L450.045 225.539ZM131.451 273.531C155.302 279.743 170.753 302.61 167.299 326.583C164.249 347.756 147.68 364.266 126.405 367.33C93.5068 372.07 65.1587 340.659 73.4847 308.693C80.2147 282.853 106.358 266.995 131.451 273.531ZM379.451 273.531C403.302 279.743 418.753 302.61 415.299 326.583C412.249 347.756 395.68 364.266 374.405 367.33C341.507 372.07 313.159 340.659 321.485 308.693C328.215 282.853 354.358 266.995 379.451 273.531ZM111.993 297.307C110.068 297.914 106.228 300.681 103.459 303.455C96.3918 310.538 94.4398 318.011 97.2088 327.384C98.8318 332.877 107.116 341.161 112.609 342.784C121.985 345.554 129.46 343.601 136.527 336.534C146.299 326.762 146.591 314.331 137.292 303.988C130.82 296.79 121.47 294.32 111.993 297.307ZM359.993 297.307C355.085 298.854 346.714 307.522 345.209 312.616C342.439 321.992 344.392 329.467 351.459 336.534C356.638 341.713 361.703 344 367.993 344C374.283 344 379.348 341.713 384.527 336.534C394.299 326.762 394.591 314.331 385.292 303.988C378.82 296.79 369.47 294.32 359.993 297.307ZM57.6268 305.513C57.3068 306.344 56.7468 309.944 56.3808 313.513L55.7168 320H38.3088C21.1608 320 20.8658 319.964 18.4478 317.545C16.8998 315.998 15.9928 313.948 15.9928 312C15.9928 310.052 16.8998 308.002 18.4478 306.455C20.8778 304.024 21.0838 304 39.5548 304C55.7928 304 58.1318 304.196 57.6268 305.513ZM305.627 305.513C305.307 306.344 304.747 309.944 304.381 313.513L303.717 320H243.993H184.269L183.605 313.513C183.239 309.944 182.679 306.344 182.359 305.513C181.845 304.172 188.873 304 243.993 304C299.113 304 306.141 304.172 305.627 305.513ZM463.993 309.545C463.993 314.1 463.554 315.53 461.538 317.545C459.176 319.907 458.578 320 445.677 320H432.269L431.605 313.513C431.239 309.944 430.679 306.344 430.359 305.513C429.855 304.199 432.027 304 446.886 304H463.993V309.545ZM125.538 314.455C130.499 319.415 126.984 328 119.993 328C115.882 328 111.993 324.111 111.993 320C111.993 315.889 115.882 312 119.993 312C121.941 312 123.991 312.907 125.538 314.455ZM373.538 314.455C375.086 316.002 375.993 318.052 375.993 320C375.993 321.948 375.086 323.998 373.538 325.545C371.991 327.093 369.941 328 367.993 328C366.045 328 363.995 327.093 362.448 325.545C360.9 323.998 359.993 321.948 359.993 320C359.993 318.052 360.9 316.002 362.448 314.455C363.995 312.907 366.045 312 367.993 312C369.941 312 371.991 312.907 373.538 314.455Z" fill="#6989AD"/>
</svg>
