<svg width="375" height="375" viewBox="0 0 375 375" fill="none" xmlns="http://www.w3.org/2000/svg">
<path fill-rule="evenodd" clip-rule="evenodd" d="M144.826 0.306092C117.38 3.72109 92.6536 12.8101 70.7186 27.5471C27.1376 56.8261 2.20756 100.675 0.141562 151.684C-1.72044 197.662 14.8366 240.591 46.8236 272.725C95.5016 321.626 170.532 333.632 232.353 302.412C238.25 299.435 251.971 290.707 259.355 285.237C261.29 283.803 263.491 285.841 306.845 329.203L352.306 374.672L363.572 363.438L374.838 352.204L329.255 306.613L283.671 261.021L286.117 258.103C289.897 253.591 299.237 238.874 302.7 231.972C333.712 170.163 321.649 95.2411 272.867 46.6821C249.176 23.0991 220.326 7.96209 187.839 2.06709C179.557 0.564094 151.862 -0.569908 144.826 0.306092ZM184.326 34.1781C235.926 44.8141 274.166 82.8951 285.486 134.916C287.981 146.381 288.015 172.9 285.549 184.376C282.877 196.813 279.173 207.098 273.196 218.684C260.274 243.731 242.039 261.528 216.326 274.189C179.336 292.403 138.307 292.186 101.826 273.585C66.5596 255.603 42.6006 223.767 34.1696 183.684C31.7006 171.95 31.7006 147.418 34.1696 135.684C39.4826 110.425 50.3326 89.5071 67.2896 71.8281C88.0056 50.2311 114.167 36.8091 143.461 32.7491C152.952 31.4331 174.702 32.1941 184.326 34.1781Z" fill="white"/>
</svg>
