<svg width="480" height="480" viewBox="0 0 480 480" fill="none" xmlns="http://www.w3.org/2000/svg">
<path fill-rule="evenodd" clip-rule="evenodd" d="M145 36.3283C92.413 56.9243 51.529 73.4773 50.25 74.6913L48 76.8273V141.733V206.639L24.95 220.428C12.272 228.012 1.472 235.016 0.950001 235.992C0.365001 237.084 0 283.411 0 356.378V474.989L2.455 477.443L4.909 479.898H128H251.091L253.545 477.443C255.343 475.646 256 473.905 256 470.943C256 466.553 256.172 466.385 259.075 467.938C260.683 468.799 261.173 468.582 261.907 466.688C262.396 465.429 263.727 462.057 264.865 459.196L266.933 453.994L257.717 449.536C252.647 447.084 247.15 444.21 245.5 443.149L242.5 441.22L238.127 447.712L233.753 454.203L236.127 456.028C237.432 457.032 238.838 457.864 239.25 457.876C239.662 457.888 240 459.248 240 460.898V463.898H212H184V434.232V404.566L188.124 410.482C193.07 417.576 202.233 428.757 203.169 428.839C203.538 428.871 206.338 426.614 209.393 423.822L214.947 418.746L209.797 412.572C167.121 361.402 164.832 287.903 204.246 234.338C211.359 224.671 226.909 209.571 237.349 202.193C265.518 182.286 301.532 173.006 335.5 176.903C341.55 177.597 347.389 178.217 348.475 178.281C350.052 178.374 350.688 177.389 351.629 173.398C354.031 163.213 354.097 163.325 344.75 161.77C332.873 159.795 303.881 160.059 292.752 162.244C261.014 168.476 237.816 179.905 211.594 202.23L207.093 206.063L168.637 182.98C147.486 170.285 129.199 159.898 127.998 159.898C126.34 159.898 82.057 185.564 66.25 195.687L64 197.128V141.254V85.3793L150.501 51.5453C198.077 32.9363 237.844 17.4903 238.871 17.2213C239.926 16.9463 278.92 31.6733 328.37 51.0243L416 85.3153V138.606V191.898H424H432V134.509C432 81.3123 431.872 76.9683 430.25 75.0383C428.296 72.7153 243.07 -0.173689 239.559 0.000311029C238.427 0.056311 195.875 16.4043 145 36.3283ZM146.455 66.3533L144 68.8073V103.898V138.989L146.455 141.443L148.909 143.898H240H331.091L333.545 141.443L336 138.989V103.898V68.8073L333.545 66.3533L331.091 63.8983H240H148.909L146.455 66.3533ZM200 103.898V127.898H180H160V103.898V79.8983H180H200V103.898ZM264 103.898V127.898H240H216V103.898V79.8983H240H264V103.898ZM320 103.898V127.898H300H280V103.898V79.8983H300H320V103.898ZM368.808 176.065C367.437 180.322 366.906 183.368 367.5 183.57C368.05 183.756 372.97 185.924 378.433 188.387C383.896 190.851 388.439 192.761 388.528 192.632C388.618 192.503 390.292 189.346 392.248 185.615L395.804 178.832L391.152 176.506C385.509 173.683 373.549 168.898 372.137 168.898C371.575 168.898 370.077 172.123 368.808 176.065ZM162.592 197.953C180.966 208.983 196 218.242 196 218.529C196 218.815 193.967 221.692 191.483 224.92C179.702 240.23 167.819 265.723 164.225 283.398L163.411 287.398L119.617 287.898L75.822 288.398L73.911 290.759C72.063 293.042 72 295.936 72 378.509V463.898H44H16V354.147V244.396L71.25 211.189C101.638 192.924 127.104 177.962 127.842 177.94C128.58 177.917 144.217 186.923 162.592 197.953ZM423.67 209.431L418.84 214.938L425.934 222.534C443.186 241.008 455.565 265.127 461.181 291.21C464.1 304.766 464.363 332.939 461.693 345.898C454.124 382.622 435.036 413.242 406.223 434.875C389.177 447.675 370.118 456.294 348.183 461.125C334.621 464.112 304.848 464.125 291.5 461.15C286.55 460.047 282.377 459.25 282.226 459.379C281.948 459.617 278 473.534 278 474.277C278 474.499 283.288 475.725 289.75 477C305.127 480.035 333.483 480.301 347.5 477.542C366.942 473.714 382.727 468.051 398 459.424C460.041 424.379 491.661 353.256 475.812 284.398C471.52 265.747 463.022 246.094 452.463 230.398C446.101 220.941 431.463 203.893 429.721 203.911C429.049 203.918 426.326 206.402 423.67 209.431ZM107.794 216.934C98.056 221.846 89.618 226.743 89.044 227.816C88.426 228.971 88 237.359 88 248.378C88 266.804 88.024 267.013 90.455 269.443L92.909 271.898H128H163.091L165.545 269.443C167.976 267.013 168 266.804 168 248.378C168 237.357 167.574 228.971 166.956 227.815C165.699 225.468 130.987 207.875 127.761 207.951C126.517 207.98 117.532 212.023 107.794 216.934ZM284.5 219.993C262.236 222.18 243.391 232.309 223.75 252.644L216 260.668V268.484V276.3L204 288.438C187.846 304.778 187.727 303.048 206.288 321.61C224.609 339.93 223.357 339.768 237.674 325.68L248.057 315.462L266.257 333.662L284.457 351.862L268.35 368.13C259.491 377.077 251.475 385.911 250.537 387.761C241.92 404.755 256.909 426.101 275.655 423.532C283.238 422.492 288.099 419.015 304.25 403.075L320 387.531L335.75 403.075C351.901 419.015 356.762 422.492 364.345 423.532C378.236 425.436 392 413.176 392 398.898C392 389.947 389.67 386.396 372.148 368.64L355.61 351.882L359.443 347.956L363.276 344.031L385.888 343.714C408.456 343.399 408.509 343.393 413.143 340.668C419.177 337.122 448 306.757 448 303.947C448 300.781 430.307 266.133 428.083 264.942C422.944 262.192 421.308 263.232 404.53 279.898L388.424 295.898H382.212H376V289.686V283.474L392 267.368C408.666 250.59 409.706 248.954 406.956 243.815C405.629 241.337 370.938 223.898 367.333 223.898C365.207 223.898 361.427 227.084 349.243 239.148C340.772 247.535 332.639 256.423 331.17 258.898C328.519 263.367 328.498 263.556 328.184 286.01L327.867 308.622L323.911 312.485L319.955 316.348L297.742 294.134L275.528 271.92L283.014 264.325C294.661 252.508 306.561 244.777 319.749 240.457C325.535 238.562 328 235.925 328 231.63C328 226.811 324.372 224.346 313.903 222.054C302.906 219.645 294.23 219.038 284.5 219.993ZM140.015 230.906L152 236.913V246.406V255.898H128H104V246.406V236.914L115.75 230.958C122.213 227.682 127.619 224.978 127.765 224.95C127.911 224.921 133.424 227.601 140.015 230.906ZM289.015 237.7C284.187 240.999 273.393 250.761 264.75 259.646C253.116 271.605 253.104 272.175 264.208 283.552L272.417 291.961L266.267 298.111L260.117 304.261L255.581 300.079C248.358 293.421 246.769 293.872 234.33 306.113L223.949 316.327L217.76 310.138L211.571 303.949L221.785 293.568L232 283.188V275.166V267.143L241.771 257.765C248.482 251.324 253.884 247.149 259.021 244.435C268.225 239.573 279.851 236.006 286.5 236.004L291.5 236.003L289.015 237.7ZM378.15 245.973L386.255 250.049L373.128 263.306L360 276.564V291.776C360 306.595 360.064 307.053 362.455 309.443C364.845 311.834 365.303 311.898 380.122 311.898H395.334L408.558 298.804L421.781 285.71L425.891 293.553C428.151 297.866 430 301.643 430 301.946C430 302.249 424.224 308.212 417.164 315.197L404.328 327.898H380.443H356.558L316.983 367.428C282.379 401.992 276.948 407.032 273.75 407.551C270.598 408.063 269.672 407.724 267.046 405.098C264.887 402.939 264 401.095 264 398.765C264 395.773 267.578 391.894 304 355.398L344 315.317V291.443V267.57L356.701 254.734C363.686 247.674 369.546 241.898 369.723 241.898C369.9 241.898 373.692 243.732 378.15 245.973ZM160.541 321.149C160.584 338.713 162.677 354.063 166.513 364.936C167.749 368.437 168 377.16 168 416.524V463.898H128H88V383.898V303.898L124.25 303.899L160.5 303.9L160.541 321.149ZM296.503 315.901L308.474 327.904L302.235 334.143L295.995 340.383L283.766 328.154L271.537 315.924L277.487 309.911C280.76 306.604 283.684 303.898 283.984 303.898C284.285 303.898 289.918 309.299 296.503 315.901ZM32 383.898V439.898H40H48V383.898V327.898H40H32V383.898ZM360.291 379.719C374.115 393.641 376 395.93 376 398.795C376 401.091 375.101 402.95 372.954 405.098C370.324 407.728 369.405 408.063 366.235 407.549C363.149 407.048 360.085 404.475 347.049 391.439L331.535 375.925L337.486 369.912C340.759 366.604 343.695 363.898 344.009 363.898C344.324 363.898 351.651 371.017 360.291 379.719Z" fill="#6989AD"/>
</svg>
