<?xml version="1.0" encoding="utf-8"?>
<!-- Generator: Adobe Illustrator 23.0.0, SVG Export Plug-In . SVG Version: 6.00 Build 0)  -->
<svg version="1.1" id="Слой_1" xmlns="http://www.w3.org/2000/svg" xmlns:xlink="http://www.w3.org/1999/xlink" x="0px" y="0px"
	 viewBox="0 0 512 512" style="enable-background:new 0 0 512 512;" xml:space="preserve">
<style type="text/css">
	.st0{fill:#6989AD;}
</style>
<g id="advisor">
	<path class="st0" d="M434,232.2l-23.4-7.8c-1.6-0.5-3.4-0.5-5,0.1L403,209c15.4-8.5,25.9-23.7,28.4-41h8.6c8.8,0,16-7.2,16-16v-8
		c0-7.7-5.4-14.2-13-15.7l10.6-10.6c1.5-1.5,2.3-3.6,2.3-5.7v-8c0-30.9-25.1-56-56-56h-48c-30.9,0-56,25.1-56,56v8
		c0,2.1,0.8,4.2,2.3,5.7l10.6,10.6c-7.5,1.5-12.9,8-13,15.7v8c0,8.8,7.2,16,16,16h8.6c2.5,17.4,13,32.5,28.4,41l-2.6,15.4
		c-1.6-0.6-3.4-0.6-5-0.1l-23.4,7.8c-35.7,5-62.2,35.7-62,71.8v1.2l-48.3-60.4c-1.6-20.7-18.9-36.7-39.7-36.8H88c-4.4,0-8,3.6-8,8
		c0,22.1,17.9,40,40,40h27.7L256,418.4V472c0,13.2,10.8,24,24,24h208c4.4,0,8-3.6,8-8V304C496.2,267.9,469.7,237.2,434,232.2
		L434,232.2z M440,152h-8v-8h8V152z M320,152h-8v-8h8V152z M320,112v4.7l-8-8V104c0-22.1,17.9-40,40-40h48c22.1,0,40,17.9,40,40v4.7
		l-8,8V112c0-3-1.7-5.8-4.4-7.1l-32-16c-1.7-0.9-3.7-1.1-5.5-0.6l-64,16C322.5,105.1,320,108.3,320,112L320,112z M336,160v-41.8
		l55-13.8l25,12.5v43c0,22.1-17.9,40-40,40S336,182.1,336,160z M391.4,237.3L376,252.7l-15.4-15.4l3.8-22.6c7.7,1.7,15.7,1.7,23.4,0
		L391.4,237.3z M341.8,241.1l28.5,28.6c3.1,3.1,8.2,3.1,11.4,0l28.5-28.6l9,3L387.9,288h-23.8l-31.3-43.8L341.8,241.1z M390.6,336
		l8.9,53.3L376,412.7l-23.4-23.4l8.9-53.3H390.6z M364.1,320l2.7-16h18.4l2.7,16H364.1z M120,240c-10.2,0-19.2-6.4-22.6-16H168
		c10.2,0,19.2,6.4,22.6,16H120z M480,480h-32v-80h32V480z M480,384h-40c-4.4,0-8,3.6-8,8v88H280c-4.4,0-8-3.6-8-8v-56
		c0-1.6-0.5-3.1-1.4-4.4L167,256h29.2l61.6,77c2.1,2.7,5.7,3.7,8.9,2.6c3.2-1.1,5.3-4.1,5.4-7.5v-24c-0.2-26.6,18.4-49.7,44.4-55.3
		l35.2,49.2l-15.5,92.8c-0.4,2.5,0.4,5.1,2.2,7l32,32c3.2,3.1,8.2,3.1,11.4,0l32-32c1.8-1.8,2.6-4.4,2.2-7l-15.5-92.8l35.2-49.2
		c26,5.6,44.6,28.7,44.4,55.3V384z"/>
	<path class="st0" d="M40,192h192c13.3,0,24-10.7,24-24V40c0-13.3-10.7-24-24-24H40c-13.3,0-24,10.7-24,24v128
		C16,181.3,26.7,192,40,192z M32,40c0-4.4,3.6-8,8-8h192c4.4,0,8,3.6,8,8v128c0,4.4-3.6,8-8,8H40c-4.4,0-8-3.6-8-8V40z"/>
	<path class="st0" d="M48,48h16v16H48V48z"/>
	<path class="st0" d="M80,48h144v16H80V48z"/>
	<path class="st0" d="M48,112h176v16H48V112z"/>
	<path class="st0" d="M48,80h176v16H48V80z"/>
	<path class="st0" d="M48,144h176v16H48V144z"/>
	<path class="st0" d="M88,392c-17.7,0-32,14.3-32,32s14.3,32,32,32s32-14.3,32-32S105.7,392,88,392z M88,440c-8.8,0-16-7.2-16-16
		s7.2-16,16-16s16,7.2,16,16S96.8,440,88,440z"/>
	<path class="st0" d="M153.9,400.2l-5.4-1.3l2.8-4.7c1.9-3.1,1.4-7.2-1.2-9.8l-22.6-22.6c-2.6-2.6-6.6-3.1-9.8-1.2l-4.7,2.8
		l-1.3-5.4c-0.9-3.6-4.1-6.1-7.8-6.1H72c-3.7,0-6.9,2.5-7.8,6.1l-1.3,5.4l-4.7-2.8c-3.1-1.9-7.2-1.4-9.8,1.2l-22.6,22.6
		c-2.6,2.6-3.1,6.6-1.2,9.8l2.8,4.7l-5.4,1.3c-3.6,0.9-6.1,4.1-6.1,7.8v32c0,3.7,2.5,6.9,6.1,7.8l5.4,1.3l-2.8,4.7
		c-1.9,3.1-1.4,7.2,1.2,9.8l22.6,22.6c2.6,2.6,6.6,3.1,9.8,1.2l4.7-2.8l1.3,5.4c0.9,3.6,4.1,6.1,7.8,6.1h32c3.7,0,6.9-2.5,7.8-6.1
		l1.3-5.4l4.7,2.8c3.1,1.9,7.2,1.4,9.8-1.2l22.6-22.6c2.6-2.6,3.1-6.6,1.2-9.8l-2.8-4.7l5.4-1.3c3.6-0.9,6.1-4.1,6.1-7.8v-32
		C160,404.3,157.5,401.1,153.9,400.2z M144,433.8l-9.8,2.4c-4.3,1.1-6.9,5.4-5.8,9.7c0.2,0.8,0.5,1.5,0.9,2.2l5.2,8.6l-13.8,13.8
		l-8.6-5.2c-3.8-2.3-8.7-1-11,2.7c-0.4,0.7-0.7,1.4-0.9,2.2l-2.4,9.8H78.2l-2.4-9.8c-1.1-4.3-5.4-6.9-9.7-5.8
		c-0.8,0.2-1.5,0.5-2.2,0.9l-8.6,5.2l-13.8-13.8l5.2-8.6c2.3-3.8,1-8.7-2.7-11c-0.7-0.4-1.4-0.7-2.2-0.9l-9.8-2.4v-19.5l9.8-2.4
		c4.3-1.1,6.9-5.4,5.8-9.7c-0.2-0.8-0.5-1.5-0.9-2.2l-5.2-8.6l13.8-13.8l8.6,5.2c3.8,2.3,8.7,1,11-2.7c0.4-0.7,0.7-1.4,0.9-2.2
		l2.4-9.8h19.5l2.4,9.8c1.1,4.3,5.4,6.9,9.7,5.8c0.8-0.2,1.5-0.5,2.2-0.9l8.6-5.2l13.8,13.8l-5.2,8.6c-2.3,3.8-1,8.7,2.7,11
		c0.7,0.4,1.4,0.7,2.2,0.9l9.8,2.4L144,433.8z"/>
	<path class="st0" d="M80,320h16v16H80V320z"/>
	<path class="st0" d="M80,264h16v40H80V264z"/>
	<path class="st0" d="M176,416h16v16h-16V416z"/>
	<path class="st0" d="M208,416h32v16h-32V416z"/>
</g>
</svg>
