<?xml version="1.0" encoding="utf-8"?>
<!-- Generator: Adobe Illustrator 23.0.0, SVG Export Plug-In . SVG Version: 6.00 Build 0)  -->
<svg version="1.1" id="Capa_1" xmlns="http://www.w3.org/2000/svg" xmlns:xlink="http://www.w3.org/1999/xlink" x="0px" y="0px"
	 viewBox="0 0 512 512" style="enable-background:new 0 0 512 512;" xml:space="preserve">
<style type="text/css">
	.st0{fill:#6989AD;}
</style>
<g>
	<g>
		<g>
			<path class="st0" d="M452.9,338.1c-9.7,10.6-21.2,16.8-34.4,20.3l-117.4,21.2c1.8-5.3,1.8-10.6,0.9-15.9
				c-1.8-10.6-7.9-19.4-16.8-23.8l-72.4-41.5c-17.7-9.7-38.8-10.6-56.5-0.9l-56.5,29.1l-12.4-37.1c-0.9-4.4-4.4-7.1-7.9-7.1H8.9
				c-2.6,0-5.3,1.8-7.1,3.5c-1.8,2.6-2.6,5.3-0.9,7.9l70.6,211.8c0.9,3.5,4.4,6.2,7.9,6.2h70.6c2.6,0,5.3-1.8,7.1-3.5
				c1.8-2.6,1.8-5.3,0.9-7.9l-19.4-59.1h5.3l98,34.4c0.9,0,1.8,0.9,2.6,0.9s0.9,0,1.8,0l128.9-22.9c46.8-8.8,90-31.8,123.6-68
				c11.5-13.2,11.5-34.4,0-47.7C486.4,324.8,465.2,324.8,452.9,338.1z M85.7,494.3L21.3,300.1h52.1l64.4,194.2H85.7z M485.5,373.4
				c-30.9,33.5-70.6,54.7-113.9,62.7L245.4,459l-97.1-34.4c-0.9,0-1.8-0.9-2.6-0.9h-12.4L106,341.6c0,0,0,0,0.9,0l59.1-30
				c12.4-6.2,27.4-6.2,39.7,0.9l72.4,41.5c4.4,2.6,7.1,6.2,7.9,11.5s-0.9,10.6-4.4,15c-0.9,1.8-2.6,2.6-4.4,3.5l-7.1,0.9
				c-0.9,0-1.8,0-3.5-0.9L181,354c-4.4-1.8-9.7,0.9-10.6,5.3c-1.8,4.4,0.9,9.7,5.3,10.6l85.6,30c2.6,0.9,5.3,1.8,7.9,1.8
				c0.9,0,2.6,0.9,4.4,0L422,375.2c16.8-3.5,31.8-12.4,44.1-24.7c5.3-6.2,15-6.2,20.3,0C491.7,356.6,491.7,367.2,485.5,373.4z"/>
			<path class="st0" d="M362,300.1c83,0,150-67.1,150-150S444.9,0,362,0s-150,67.1-150,150S279,300.1,362,300.1z M362,17.7
				c73.3,0,132.4,59.1,132.4,132.4S435.2,282.5,362,282.5s-132.4-59.1-132.4-132.4S288.7,17.7,362,17.7z"/>
			<path class="st0" d="M362,264.8c63.5,0,114.7-51.2,114.7-114.7S425.5,35.3,362,35.3S247.2,86.5,247.2,150.1
				S298.4,264.8,362,264.8z M362,53c53.8,0,97.1,43.2,97.1,97.1s-43.2,97.1-97.1,97.1s-97.1-43.2-97.1-97.1
				C264.9,96.2,308.1,53,362,53z"/>
			<path class="st0" d="M326.6,194.2c1.8,0,4.4-0.9,6.2-2.6l70.6-70.6c3.5-3.5,3.5-8.8,0-12.4c-3.5-3.5-8.8-3.5-12.4,0l-70.6,70.6
				c-3.5,3.5-3.5,8.8,0,12.4C322.2,193.3,324.9,194.2,326.6,194.2z"/>
			<path class="st0" d="M326.6,158.9c2.6,0,4.4-0.9,6.2-2.6l35.3-35.3c3.5-3.5,3.5-8.8,0-12.4c-3.5-3.5-8.8-3.5-12.4,0l-35.3,35.3
				c-3.5,3.5-3.5,8.8,0,12.4C322.2,158,324,158.9,326.6,158.9z"/>
			<path class="st0" d="M391.1,143.9l-35.3,35.3c-3.5,3.5-3.5,8.8,0,12.4c1.8,1.8,4.4,2.6,6.2,2.6s4.4-0.9,6.2-2.6l35.3-35.3
				c3.5-3.5,3.5-8.8,0-12.4C399.9,140.4,394.6,140.4,391.1,143.9z"/>
			<circle class="st0" cx="106" cy="467.9" r="8.8"/>
		</g>
	</g>
</g>
</svg>
