<svg width="512" height="459" viewBox="0 0 512 459" fill="none" xmlns="http://www.w3.org/2000/svg">
<path fill-rule="evenodd" clip-rule="evenodd" d="M159.5 1.8534C149.563 4.7504 142.958 8.7784 134.905 16.8494C123.165 28.6144 117.649 42.5004 118.09 59.1774L118.299 67.0714L114.487 70.9744C110.644 74.9104 109.001 75.2624 108.999 72.1524C108.998 69.3354 103.105 57.7894 98.858 52.2804C94.907 47.1554 88.1 41.4334 80.665 36.9874L76.831 34.6934L69.387 42.2834C46.934 65.1774 46.618 99.2014 68.65 121.714L74.799 127.998L71.552 135.729C69.766 139.982 67.298 146.502 66.068 150.218L63.832 156.976L60.166 152.583C50.625 141.153 36.937 134.172 20.871 132.543L15.242 131.972L13.131 136.878C7.867 149.115 6.497 164.344 9.584 176.317C14.431 195.116 31.287 211.831 49.68 216.076L54.704 217.236L55.341 229.849C55.691 236.785 56.266 244.15 56.62 246.214L57.263 249.967L52.831 247.49C38.542 239.504 21.637 238.287 5.75 244.101L0 246.205L0.017 251.333C0.068 266.43 6.455 281.652 17.258 292.424C31.995 307.119 52.954 312.446 72.211 306.389C73.546 305.969 74.836 307.668 78.076 314.113C80.361 318.657 83.979 325.143 86.115 328.526C88.252 331.909 90 334.853 90.001 335.069C90.001 335.285 86.003 335.306 81.117 335.116C76.231 334.926 69.7 335.297 66.604 335.939C58.192 337.686 47.652 343.419 40.424 350.181L34.008 356.183L37.704 363.322C45.096 377.602 60.765 389.752 75.799 392.864C92.22 396.263 109.913 392.064 122.179 381.855C124.753 379.713 127.108 377.961 127.413 377.961C127.719 377.961 131.688 380.826 136.234 384.327C140.78 387.828 147.126 392.366 150.335 394.412L156.171 398.132L148.213 400.887C132.162 406.445 120.563 417.67 113.867 434.124L111.009 441.147L113.254 443.05C117.351 446.52 125.926 452.032 129.74 453.646C140.436 458.172 155.41 459.308 166.458 456.43C181.093 452.618 195.556 440.72 202.022 427.173C205.223 420.466 205.699 419.935 208 420.513C209.375 420.859 214.165 421.946 218.645 422.929L226.79 424.717L228.395 415.946C230.507 404.404 230.48 404.108 227.25 403.373C185.998 393.983 156.379 377.693 128.973 349.323C113.872 333.69 105.155 321.399 95.628 302.306C73.782 258.525 69.813 206.882 84.727 160.461C93.972 131.683 107.575 108.848 128.253 87.3904C138.34 76.9244 139.301 76.1924 143.753 75.5884C161.601 73.1664 177.616 61.7364 186.291 45.2274C191.537 35.2434 193.343 26.6484 192.648 14.9614C191.885 2.1094 191.584 1.3204 187.164 0.589403C180.064 -0.584597 165.594 0.0764025 159.5 1.8534ZM324.352 0.677402C320.502 1.1614 320.104 2.2994 319.352 14.9614C318.938 21.9264 319.224 26.3124 320.422 31.3964C325.918 54.7084 345.117 72.4494 368.247 75.5884C372.699 76.1924 373.66 76.9244 383.747 87.3904C417.841 122.769 436 168.031 436 217.634C436 285.366 400.706 347.235 342.544 381.46C325.364 391.57 308.324 398.031 284.75 403.376C281.52 404.108 281.493 404.404 283.603 415.936L285.206 424.698L293.353 422.818C297.834 421.784 302.675 420.675 304.11 420.352C306.512 419.814 306.96 420.275 309.709 426.114C318.904 445.641 338.316 457.978 359.802 457.949C373.227 457.931 383.773 454.445 393.909 446.677C396.935 444.358 399.759 442.215 400.186 441.914C401.005 441.336 398.201 433.235 395.027 427.015C389.231 415.654 375.895 404.615 363.04 400.539L355.702 398.213L361.101 394.758C364.07 392.858 370.433 388.301 375.241 384.632C380.048 380.963 384.243 377.961 384.561 377.961C384.88 377.961 387.247 379.713 389.821 381.855C402.443 392.36 422.108 396.703 437.955 392.486C453.077 388.461 467.068 377.231 474.287 363.322L477.992 356.183L471.576 350.181C464.348 343.419 453.808 337.686 445.396 335.939C442.3 335.297 435.769 334.926 430.883 335.116C425.997 335.306 421.999 335.285 421.999 335.069C422 334.853 423.748 331.909 425.885 328.526C428.021 325.143 431.639 318.657 433.924 314.113C437.164 307.668 438.454 305.969 439.789 306.389C459.272 312.517 479.895 307.146 495.04 292.001C506.236 280.805 511.935 267.294 511.983 251.833L512 246.205L506.25 244.101C490.566 238.361 474.314 239.388 460.124 247.015L454.747 249.905L455.385 246.183C455.736 244.136 456.309 236.785 456.659 229.849L457.296 217.236L462.32 216.076C480.669 211.841 497.547 195.165 502.497 176.38C505.674 164.326 504.303 149.66 498.791 136.738L496.777 132.015L490.638 132.604C475.41 134.067 459.658 142.291 451.123 153.236L448.179 157.01L445.938 150.236C444.705 146.51 442.246 140.01 440.475 135.793L437.254 128.125L443.433 121.792C465.611 99.0624 465.012 64.2974 442.051 41.5114L435.129 34.6424L428.675 38.8474C416.652 46.6804 406.645 59.2634 403.891 70.0104C403.193 72.7334 402.348 74.9614 402.014 74.9614C401.679 74.9614 399.672 73.1864 397.554 71.0164L393.701 67.0714L393.91 59.1774C394.346 42.6954 388.798 28.8144 377 16.8654C368.884 8.6454 361.279 4.2244 350.54 1.4834C345.039 0.0784017 332.246 -0.315598 324.352 0.677402ZM171.477 25.2114C170.534 30.9414 166.8 38.6664 162.604 43.5684C158.537 48.3204 149.161 53.5924 143.037 54.5714L138.696 55.2654L139.395 50.8634C141.75 36.0344 156.553 21.5354 169.838 21.0474C172.039 20.9664 172.135 21.2094 171.477 25.2114ZM353.17 24.5474C363.043 29.5504 370.904 40.1464 372.581 50.7114C373.243 54.8844 373.204 54.9614 370.378 54.9514C366.968 54.9404 358.347 51.0904 353.568 47.4454C347.261 42.6354 340 29.0984 340 22.1524C340 20.0844 346.806 21.3224 353.17 24.5474ZM86.275 71.8674C90.541 80.5314 91.22 90.7134 88.083 98.9614C84.901 107.327 84.518 107.74 82.036 105.494C78.775 102.542 74.164 92.0194 73.478 85.9614C72.773 79.7344 74.121 72.4864 77.161 66.1594C79.152 62.0174 79.299 61.9224 81.139 63.5874C82.19 64.5374 84.501 68.2634 86.275 71.8674ZM437.453 73.4424C439.409 80.9514 439.403 85.2034 437.429 92.0294C435.744 97.8564 430.224 106.956 428.373 106.959C426.126 106.963 422.613 96.6994 422.213 88.9614C421.767 80.3364 423.943 73.1014 429.141 65.9244L432.218 61.6774L434.062 64.5904C435.076 66.1924 436.602 70.1754 437.453 73.4424ZM244.387 140.219L231.423 180.461L188.962 180.961L146.5 181.461L180.5 206.34C199.2 220.024 214.61 231.309 214.744 231.417C214.878 231.526 209.147 249.775 202.009 271.97C194.871 294.166 189.16 312.454 189.316 312.611C189.537 312.831 251.712 267.773 256.585 263.861C257.277 263.305 269.961 271.981 291.585 287.801C310.238 301.447 325.633 312.293 325.795 311.902C325.957 311.511 320.237 293.272 313.083 271.371C305.93 249.47 300.172 231.496 300.288 231.429C300.931 231.059 350.987 194.478 359 188.522L368.5 181.461L326.077 180.961L283.653 180.461L270.809 140.527C263.744 118.563 257.826 100.454 257.657 100.285C257.488 100.116 251.517 118.086 244.387 140.219ZM36.838 159.538C42.841 163.58 47.69 169.826 50.208 176.758C51.97 181.608 52.665 194.961 51.155 194.961C48.824 194.961 38.12 186.738 35.419 182.871C30.157 175.338 27.086 164.452 28.563 158.566C29.422 155.144 30.502 155.271 36.838 159.538ZM483.29 158.697C484.058 162.718 482.248 172.455 479.738 177.798C477.095 183.424 470.664 190.071 465.135 192.892C462.905 194.03 460.837 194.961 460.54 194.961C459.338 194.961 460.104 181.018 461.532 176.889C463.751 170.471 469.192 163.558 475.218 159.5C481.54 155.243 482.609 155.137 483.29 158.697ZM263.407 185.145L268.613 201.461L286.817 201.961L305.02 202.461L291.338 212.461C283.813 217.961 277.245 222.736 276.744 223.072C276.243 223.408 278.298 231.392 281.31 240.815C284.322 250.238 286.272 257.642 285.643 257.27C285.015 256.897 278.493 252.177 271.151 246.779L257.802 236.966L255.151 238.875C253.693 239.925 247.325 244.605 241 249.276C234.675 253.946 229.355 257.629 229.178 257.459C229.002 257.29 231.139 250.102 233.928 241.487C236.718 232.872 239 225.213 239 224.467C239 223.721 232.59 218.465 224.756 212.786L210.512 202.461L228.597 202.189L246.682 201.917L252.074 185.005C255.04 175.704 257.632 168.259 257.834 168.462C258.036 168.664 260.544 176.172 263.407 185.145ZM40 264.587C43.025 265.948 47.45 268.952 49.834 271.262C54.132 275.426 59 283.48 59 286.428C59 290.093 43.758 286.643 35.819 281.181C30.622 277.605 24.332 268.966 23.365 264.077L22.696 260.693L28.598 261.402C31.844 261.792 36.975 263.225 40 264.587ZM489 262.501C489 266.764 482.324 276.449 476.123 281.181C469.372 286.333 453 290.048 453 286.428C453 283.494 457.819 275.434 462.106 271.199C466.978 266.384 472.71 263.301 479.132 262.039C486.224 260.645 489 260.775 489 262.501ZM88.797 356.985C95.495 358.693 106.019 366.504 104.637 368.74C104.321 369.25 101.531 370.464 98.437 371.437C86.632 375.15 72.931 372.151 64.05 363.91L60.601 360.709L64.258 358.833C71.013 355.367 79.847 354.702 88.797 356.985ZM437.5 355.942C440.8 356.476 445.203 357.674 447.284 358.604L451.068 360.295L447.784 363.718C442.287 369.446 435.667 372.238 426.367 372.751C418.114 373.206 408.914 371.249 407.34 368.702C405.703 366.054 418.794 357.677 427.132 356.039C429.534 355.566 431.5 355.133 431.5 355.076C431.5 355.019 434.2 355.409 437.5 355.942ZM178.422 420.823L181.345 422.042L176.533 426.928C169.993 433.567 161.895 437.13 153.167 437.207C145.392 437.276 138 435.477 138 433.515C138 431.195 147.818 423.174 153.302 421.016C157.426 419.392 160.257 419.035 167 419.287C171.675 419.461 176.815 420.153 178.422 420.823ZM358.212 420.942C363.746 423.015 374 431.146 374 433.461C374 435.549 367.215 437.352 359.489 437.319C350.368 437.278 342.169 433.732 335.467 426.928C330.675 422.062 330.665 422.039 333.078 421.145C334.41 420.652 336.175 419.994 337 419.684C340.706 418.288 353.091 419.023 358.212 420.942Z" fill="#6989AD"/>
</svg>
