<?xml version="1.0" encoding="utf-8"?>
<!-- Generator: Adobe Illustrator 25.3.1, SVG Export Plug-In . SVG Version: 6.00 Build 0)  -->
<svg version="1.1" id="Layer_1" xmlns="http://www.w3.org/2000/svg" xmlns:xlink="http://www.w3.org/1999/xlink" x="0px" y="0px"
	 viewBox="0 0 512 512" style="enable-background:new 0 0 512 512;" xml:space="preserve">
<style type="text/css">
	.st0{fill:#FFFFFF;}
</style>
<g>
	<g>
		<path class="st0" d="M501.8,0H10.2C4.6,0,0,4.6,0,10.2v491.6c0,5.6,4.6,10.2,10.2,10.2h491.6c5.6,0,10.2-4.6,10.2-10.2V10.2
			C512,4.6,507.4,0,501.8,0z M491.6,491.6H20.4V20.4h471.2L491.6,491.6L491.6,491.6z"/>
	</g>
</g>
<g>
	<g>
		<path class="st0" d="M451.5,50.3H278.2c-4.1,0-7.8,2.5-9.4,6.3c-1.6,3.8-0.7,8.2,2.2,11.1l44.9,44.9l-71.2,71.2
			c-1.9,1.9-3,4.5-3,7.2s1.1,5.3,3,7.2l69,69c1.9,1.9,4.5,3,7.2,3s5.3-1.1,7.2-3l71.2-71.2l44.9,44.9c2.9,2.9,7.3,3.8,11.1,2.2
			c3.8-1.6,6.3-5.3,6.3-9.4V60.5C461.7,54.9,457.1,50.3,451.5,50.3z M441.3,209.2l-34.7-34.7c-1.9-1.9-4.5-3-7.2-3
			c-2.7,0-5.3,1.1-7.2,3l-71.2,71.2l-54.5-54.5l71.2-71.2c1.9-1.9,3-4.5,3-7.2s-1.1-5.3-3-7.2l-34.7-34.7h138.4V209.2z"/>
	</g>
</g>
<g>
	<g>
		<path class="st0" d="M271,310l-69-69c-4-4-10.4-4-14.4,0l-71.2,71.2l-44.9-44.9c-2.9-2.9-7.3-3.8-11.1-2.2
			c-3.8,1.6-6.3,5.3-6.3,9.4v173.2c0,5.6,4.6,10.2,10.2,10.2h173.2c4.1,0,7.8-2.5,9.4-6.3c1.6-3.8,0.7-8.2-2.2-11.1l-44.9-44.9
			l71.2-71.2C275,320.4,275,314,271,310z M178.1,388.4c-4,4-4,10.4,0,14.4l34.7,34.7H74.5V299.1l34.7,34.7c4,4,10.4,4,14.4,0
			l71.2-71.2l54.5,54.5L178.1,388.4z"/>
	</g>
</g>
<g>
	<g>
		<path class="st0" d="M64.3,96.9c-5.6,0-10.2,4.6-10.2,10.2v54.1c0,5.6,4.6,10.2,10.2,10.2s10.2-4.6,10.2-10.2v-54.1
			C74.5,101.5,69.9,96.9,64.3,96.9z"/>
	</g>
</g>
<g>
	<g>
		<path class="st0" d="M64.3,56.9c-5.6,0-10.2,4.6-10.2,10.2v4.3c0,5.6,4.6,10.2,10.2,10.2S74.5,77,74.5,71.4v-4.3
			C74.5,61.4,69.9,56.9,64.3,56.9z"/>
	</g>
</g>
</svg>
