<svg display="none" xmlns="http://www.w3.org/2000/svg">

	<symbol id="search" viewBox="0 0 512 512">
		<g>
			<path
				d="M505.75 475.583L378.411 348.245C413.112 305.804 430.174 251.649 426.066 196.982C421.959 142.315 396.997 91.3172 356.343 54.5384C315.69 17.7595 262.456 -1.98704 207.651 -0.616765C152.847 0.753514 100.666 23.1358 61.9013 61.9003C23.1367 100.665 0.75449 152.846 -0.615789 207.65C-1.98607 262.455 17.7605 315.689 54.5393 356.342C91.3182 396.996 142.316 421.958 196.983 426.065C251.65 430.173 305.805 413.111 348.246 378.41L475.584 505.749C479.608 509.635 484.997 511.785 490.59 511.736C496.184 511.688 501.534 509.444 505.49 505.489C509.445 501.533 511.689 496.183 511.737 490.589C511.786 484.996 509.636 479.607 505.75 475.583ZM213.334 383.999C179.579 383.999 146.582 373.99 118.516 355.237C90.4502 336.484 68.5755 309.829 55.6581 278.644C42.7408 247.459 39.361 213.143 45.9462 180.037C52.5314 146.931 68.7858 116.521 92.654 92.653C116.522 68.7849 146.932 52.5304 180.038 45.9452C213.144 39.36 247.46 42.7398 278.645 55.6571C309.83 68.5745 336.485 90.4493 355.238 118.515C373.991 146.581 384 179.578 384 213.333C383.949 258.581 365.952 301.961 333.957 333.956C301.962 365.951 258.582 383.948 213.334 383.999Z" />
		</g>
	</symbol>


	<symbol id="vk" viewBox="0 0 512 292">
		<g>
			<path fill-rule="evenodd" clip-rule="evenodd"
				d="M214.4 0.298293C204.7 0.998293 192.3 2.89829 187.4 4.39829C178.9 6.99829 168.4 16.3983 170.3 19.5983C170.7 20.1983 172.6 20.9983 174.7 21.2983C183.9 22.9983 191.6 28.1983 195.1 34.9983C201 46.5983 203.7 82.9983 200.5 108.698C198.4 125.698 197.5 129.598 194.4 135.798C186 152.298 166.6 138.798 145.5 101.798C137.9 88.4983 116.7 46.0983 112 34.8983C106.3 21.1983 104.5 18.6983 97.8999 15.3983L92.3999 12.5983L50.8999 12.8983C13.3999 13.1983 8.99994 13.3983 6.09994 14.9983C1.49994 17.4983 -0.50006 20.9983 0.0999399 25.4983C1.19994 33.3983 25.0999 83.3983 45.1999 119.698C69.4999 163.598 101.5 209.198 124.8 232.998C145 253.598 176.1 273.898 201.2 282.598C217.8 288.398 227 289.798 253.4 290.398C279.5 290.998 287 290.198 292.6 286.498C297.2 283.398 298.6 279.098 299.4 265.798C300.2 252.598 302.8 241.298 306.3 235.298C309.4 229.998 316.2 223.798 319.1 223.698C329.2 223.198 334.9 227.398 356.1 251.198C376 273.498 383.3 279.998 394.3 285.298C399.3 287.698 405.3 290.098 407.8 290.598C413.8 291.998 494.8 290.398 500 288.798C505.2 287.198 510.8 281.798 510.9 278.098C511.2 268.398 510.1 264.398 504.6 255.798C495.9 242.198 484.7 229.498 459.2 204.198C430.8 176.098 428.9 173.498 428.8 164.098C428.8 156.198 432.4 150.198 457.3 117.198C492.4 70.6983 506.5 48.1983 510.4 32.3983C512.7 23.0983 511.4 18.5983 505.5 15.4983C499.9 12.5983 491.4 12.3983 438.9 13.3983L397.5 14.1983L394.4 17.7983C392.7 19.7983 389.3 26.2983 386.9 32.2983C374.4 63.3983 349.9 106.298 333.4 125.998C326.9 133.698 316.9 141.598 313.5 141.598C308.8 141.598 304.9 138.598 302 132.598L299.3 127.098L299.6 75.1983C299.8 28.9983 299.7 22.6983 298.2 18.1983C294.8 7.79829 290.5 4.69829 276.1 2.09829C267.7 0.598293 226.9 -0.601707 214.4 0.298293Z" />
		</g>
	</symbol>

	<symbol id="youtube" viewBox="0 0 342 256.5">
		<g>
			<path class="st0" d="M340,56.8c1.3,24,2,47.9,2,71.5c0,23.6-0.7,47.4-2,71.5c0,15.1-4.8,27.9-14.4,38.4
		c-9.6,10.5-21.3,15.7-35.1,15.7c-34.3,1.8-74.1,2.7-119.6,2.7s-85.3-0.9-119.6-2.7c-13.8,0-25.5-5.2-35.1-15.7
		C6.8,227.7,2,214.9,2,199.7c-1.3-24-2-47.9-2-71.5c0-15.6,0.9-39.4,2.7-71.5c0-15.1,4.7-27.9,14-38.4C26.1,7.9,37.6,2.7,51.4,2.7
		C83.9,0.9,121.8,0,165,0h6h6c43.2,0,81,0.9,113.6,2.7c13.8,0,25.5,5.2,35.1,15.7C335.2,28.8,340,41.6,340,56.8z M138.3,193.7
		l96.9-65.5l-96.9-66.1V193.7z" />
		</g>
	</symbol>


	<symbol id="arrow-link" viewBox="0 0 512 512">
		<g>
			<path
				d="M493.312 210.753L395.477 112.918L365.312 143.083L456.235 234.027L0 234.667V277.334L457.515 276.694L365.291 368.918L395.456 399.083L493.312 301.249C505.274 289.228 511.989 272.959 511.989 256.001C511.989 239.042 505.274 222.774 493.312 210.753Z" />
		</g>
	</symbol>

	<symbol id="calendar" viewBox="0 0 512 512">
		<g>
			<path
				d="M405.333 42.6667H384V21.3333C384 15.6754 381.752 10.2492 377.752 6.24839C373.751 2.24761 368.325 0 362.667 0C357.009 0 351.582 2.24761 347.582 6.24839C343.581 10.2492 341.333 15.6754 341.333 21.3333V42.6667H170.667V21.3333C170.667 15.6754 168.419 10.2492 164.418 6.24839C160.418 2.24761 154.991 0 149.333 0C143.675 0 138.249 2.24761 134.248 6.24839C130.248 10.2492 128 15.6754 128 21.3333V42.6667H106.667C78.3873 42.7005 51.2759 53.9495 31.2794 73.946C11.2828 93.9426 0.0338743 121.054 0 149.333L0 405.333C0.0338743 433.613 11.2828 460.724 31.2794 480.721C51.2759 500.717 78.3873 511.966 106.667 512H405.333C433.613 511.966 460.724 500.717 480.721 480.721C500.717 460.724 511.966 433.613 512 405.333V149.333C511.966 121.054 500.717 93.9426 480.721 73.946C460.724 53.9495 433.613 42.7005 405.333 42.6667V42.6667ZM42.6667 149.333C42.6667 132.359 49.4095 116.081 61.4118 104.079C73.4142 92.0762 89.6928 85.3333 106.667 85.3333H405.333C422.307 85.3333 438.586 92.0762 450.588 104.079C462.591 116.081 469.333 132.359 469.333 149.333V170.667H42.6667V149.333ZM405.333 469.333H106.667C89.6928 469.333 73.4142 462.591 61.4118 450.588C49.4095 438.586 42.6667 422.307 42.6667 405.333V213.333H469.333V405.333C469.333 422.307 462.591 438.586 450.588 450.588C438.586 462.591 422.307 469.333 405.333 469.333Z" />
			<path
				d="M256 352C273.673 352 288 337.673 288 320C288 302.327 273.673 288 256 288C238.327 288 224 302.327 224 320C224 337.673 238.327 352 256 352Z" />
			<path
				d="M149.333 352C167.006 352 181.333 337.673 181.333 320C181.333 302.327 167.006 288 149.333 288C131.66 288 117.333 302.327 117.333 320C117.333 337.673 131.66 352 149.333 352Z" />
			<path
				d="M362.667 352C380.34 352 394.667 337.673 394.667 320C394.667 302.327 380.34 288 362.667 288C344.994 288 330.667 302.327 330.667 320C330.667 337.673 344.994 352 362.667 352Z" />
		</g>
	</symbol>

	<symbol id="time" viewBox="0 0 512 512">
		<g>
			<path
				d="M256 0C205.368 0 155.873 15.0141 113.774 43.1438C71.6751 71.2734 38.863 111.255 19.487 158.033C0.110921 204.811 -4.95873 256.284 4.91908 305.943C14.7969 355.602 39.1785 401.217 74.9808 437.019C110.783 472.822 156.398 497.203 206.057 507.081C255.716 516.959 307.189 511.889 353.967 492.513C400.745 473.137 440.727 440.325 468.856 398.226C496.986 356.127 512 306.632 512 256C511.927 188.127 484.932 123.055 436.938 75.0618C388.945 27.0683 323.873 0.0734097 256 0V0ZM256 469.333C213.807 469.333 172.561 456.822 137.478 433.38C102.396 409.939 75.0525 376.621 58.9058 337.639C42.7591 298.658 38.5344 255.763 46.7659 214.381C54.9974 172.998 75.3155 134.986 105.151 105.151C134.986 75.3154 172.998 54.9973 214.381 46.7658C255.763 38.5343 298.658 42.759 337.639 58.9057C376.621 75.0524 409.939 102.396 433.38 137.478C456.822 172.561 469.333 213.807 469.333 256C469.271 312.56 446.775 366.787 406.781 406.781C366.787 446.775 312.561 469.271 256 469.333V469.333Z" />
			<path
				d="M256 128C250.342 128 244.916 130.248 240.915 134.248C236.914 138.249 234.667 143.675 234.667 149.333V241.6L162.752 286.656C157.943 289.66 154.524 294.452 153.248 299.977C151.971 305.502 152.942 311.308 155.947 316.117C158.951 320.927 163.743 324.345 169.268 325.622C174.793 326.898 180.599 325.927 185.408 322.923L267.328 271.723C270.423 269.783 272.968 267.082 274.72 263.877C276.472 260.672 277.372 257.071 277.333 253.419V149.333C277.333 143.675 275.086 138.249 271.085 134.248C267.084 130.248 261.658 128 256 128Z" />
		</g>
	</symbol>

	<symbol id="view" viewBox="0 0 512 512">
		<g>
			<path
				d="M496.448 200.939C463.36 147.051 388.096 56.6406 256 56.6406C123.904 56.6406 48.6399 147.051 15.5519 200.939C5.32314 217.483 -0.0949707 236.55 -0.0949707 256.001C-0.0949707 275.451 5.32314 294.518 15.5519 311.062C48.6399 364.95 123.904 455.361 256 455.361C388.096 455.361 463.36 364.95 496.448 311.062C506.677 294.518 512.095 275.451 512.095 256.001C512.095 236.55 506.677 217.483 496.448 200.939V200.939ZM460.075 288.726C431.659 334.934 367.339 412.694 256 412.694C144.661 412.694 80.3412 334.934 51.9252 288.726C45.8481 278.892 42.6292 267.561 42.6292 256.001C42.6292 244.441 45.8481 233.109 51.9252 223.275C80.3412 177.067 144.661 99.3073 256 99.3073C367.339 99.3073 431.659 176.982 460.075 223.275C466.152 233.109 469.371 244.441 469.371 256.001C469.371 267.561 466.152 278.892 460.075 288.726V288.726Z" />
			<path
				d="M256 149.332C234.903 149.332 214.28 155.588 196.739 167.309C179.198 179.029 165.526 195.688 157.453 215.179C149.379 234.67 147.267 256.117 151.383 276.808C155.499 297.5 165.658 316.506 180.575 331.423C195.493 346.341 214.499 356.5 235.19 360.616C255.882 364.732 277.329 362.619 296.82 354.546C316.31 346.473 332.969 332.801 344.69 315.26C356.411 297.718 362.667 277.095 362.667 255.999C362.633 227.719 351.384 200.608 331.387 180.611C311.391 160.615 284.279 149.366 256 149.332V149.332ZM256 319.999C243.342 319.999 230.968 316.245 220.443 309.213C209.919 302.18 201.716 292.185 196.872 280.49C192.028 268.796 190.76 255.928 193.23 243.513C195.699 231.098 201.795 219.694 210.745 210.744C219.696 201.793 231.099 195.698 243.514 193.228C255.929 190.759 268.797 192.026 280.492 196.87C292.186 201.714 302.182 209.917 309.214 220.442C316.246 230.967 320 243.341 320 255.999C320 272.973 313.257 289.251 301.255 301.254C289.252 313.256 272.974 319.999 256 319.999Z" />
		</g>
	</symbol>

	<symbol id="angle-left" viewBox="0 0 260 512">
		<path
			d="M229.877 -0.000628233L260 30.1221L49.2053 240.917C45.206 244.917 42.9592 250.343 42.9592 255.999C42.9592 261.656 45.206 267.081 49.2053 271.082L259.637 481.471L229.472 511.637L19.0827 301.247C7.08452 289.246 0.34431 272.97 0.344311 255.999C0.344313 239.029 7.08453 222.753 19.0827 210.751L229.877 -0.000628233Z" />
	</symbol>
	<symbol id="angle-right" viewBox="0 0 260 512">
		<path
			d="M30.4669 511.637L0.344238 481.515L211.139 270.72C215.138 266.719 217.385 261.294 217.385 255.637C217.385 249.981 215.138 244.555 211.139 240.555L0.706909 30.1653L30.8722 0L241.262 210.389C253.26 222.391 260 238.667 260 255.637C260 272.608 253.26 288.884 241.262 300.885L30.4669 511.637Z" />
	</symbol>

	<svg id="subscribe-icon" viewBox="0 0 565.8 533.2">
		<path class="st0" d="M565.8,266.5c0.1-22.1-11.3-42.7-30.2-54.3L243.4,21.7C196.5-13.9,129.7-4.7,94.1,42.2
	c-14.1,18.5-21.7,41.2-21.7,64.4l0,51.8c0,5.7-2.3,11.1-6.3,15.1l-47.8,47.8c-6.7,6.8-11.8,14.9-14.9,23.9l-0.2,0l0,0.8
	c-4.5,13.3-4.4,27.7,0.1,41l0,0.8l0.2,0c3.1,9,8.2,17.2,14.9,23.9l47.8,47.8c4,4,6.3,9.4,6.3,15.1l0,51.8
	c-0.2,28.2,11,55.3,30.9,75.3c8.2,8.2,17.8,15.1,28.2,20.2c35.7,18.1,78.6,14.3,110.6-9.7l292.8-191
	C554.2,309.7,565.9,288.9,565.8,266.5z M115.1,158.5l0-51.8c-0.3-24.4,13.5-46.7,35.5-57.3c22.2-11.2,48.9-8.4,68.3,7.2l289.3,188.7
	l-453.3,0l41.6-41.6C108.4,191.7,115.1,175.4,115.1,158.5z M217.7,477.4c-28.2,21.3-68.3,15.7-89.6-12.5
	c-8.4-11.1-12.9-24.6-12.9-38.5l0-51.9c0-17-6.7-33.2-18.7-45.2l-41.6-41.6l453.3,0.1L217.7,477.4z" />
	</svg>

</svg>