<?xml version="1.0" encoding="utf-8"?>
<!-- Generator: Adobe Illustrator 23.0.0, SVG Export Plug-In . SVG Version: 6.00 Build 0)  -->
<svg version="1.1" id="Capa_1" xmlns="http://www.w3.org/2000/svg" xmlns:xlink="http://www.w3.org/1999/xlink" x="0px" y="0px"
	 viewBox="0 0 512 512" style="enable-background:new 0 0 512 512;" xml:space="preserve">
<style type="text/css">
	.st0{fill:#6989AD;}
</style>
<g>
	<g>
		<path class="st0" d="M300.1,384.5c11.9-15.1,14.2-36.5,4-54.2l-31.5-54.6c-6.5-11.2-16.9-19.2-29.4-22.5
			c-12.5-3.3-25.5-1.6-36.7,4.8l-13.1,7.6c-1.6,0.9-3.1,0.7-3.8,0.5c-0.8-0.2-2.1-0.8-3.1-2.3l-60.3-104.5c-1.4-2.4-0.6-5.5,1.8-6.9
			l13.1-7.6c23.1-13.3,31-43,17.7-66l-31.5-54.6C120.9,13,110.5,5,98,1.7C85.5-1.7,72.5,0,61.3,6.5C33,22.9,12.7,49.3,4.2,80.9
			s-4.1,64.6,12.2,93L119,351.5c16.4,28.3,42.8,48.6,74.4,57.1c10.6,2.8,21.3,4.2,31.9,4.2c10,0,19.8-1.2,29.5-3.7l7.4,12.9
			c3.2,5.5,9,8.6,15,8.6c2.2,0,4.5-0.4,6.6-1.3c0.8,2.1,0.1,4.1-0.3,4.9c-0.5,1.1-2.1,3.7-5.8,3.7h-51.2c-5.5,0-10,4.5-10,10
			s4.5,10,10,10h51.2c10.3,0,19.5-5.8,23.9-15.1c3.6-7.6,3.4-16.2-0.4-23.4c3.6-2.3,6.3-5.9,7.4-10.1c1.2-4.4,0.6-9.1-1.7-13.1
			L300.1,384.5z M278.2,409.7l-4.1-7.1c3.5-1.5,7-3.3,10.4-5.1l3.7,6.5L278.2,409.7z M276.4,379.1c-23.7,13.7-51.4,17.3-77.8,10.2
			c-26.5-7.1-48.6-24.1-62.3-47.8L33.8,163.9c-13.7-23.7-17.3-51.4-10.2-77.8s24.1-48.6,47.8-62.3c4.4-2.5,9.2-3.8,14.1-3.8
			c2.5,0,4.9,0.3,7.4,1c7.3,2,13.4,6.7,17.2,13.2l31.5,54.6c6.8,11.8,4.1,26.6-5.7,35.4L96.3,55.7c-2.8-4.8-8.9-6.4-13.7-3.7
			c-4.8,2.8-6.4,8.9-3.7,13.7l39.8,69l-0.7,0.4c-11.9,6.9-16.1,22.2-9.2,34.2l60.3,104.5c3.3,5.8,8.7,9.9,15.2,11.7
			c5.5,1.5,11.3,1,16.4-1.2l38,65.9c1.9,3.2,5.2,5,8.7,5c1.7,0,3.4-0.4,5-1.3c4.8-2.8,6.4-8.9,3.7-13.7l-37.9-65.7
			c6.1-3,13.1-3.7,19.8-1.9c7.3,2,13.4,6.7,17.2,13.2l31.5,54.6C294.6,353.9,290,371.3,276.4,379.1z"/>
	</g>
</g>
<g>
	<g>
		<path class="st0" d="M193.1,440.9c-1.9-1.9-4.4-2.9-7.1-2.9s-5.2,1.1-7.1,2.9c-1.9,1.9-2.9,4.4-2.9,7.1c0,2.6,1.1,5.2,2.9,7.1
			c1.9,1.9,4.4,2.9,7.1,2.9s5.2-1.1,7.1-2.9c1.9-1.9,2.9-4.4,2.9-7.1C196,445.4,195,442.8,193.1,440.9z"/>
	</g>
</g>
<g>
	<g>
		<path class="st0" d="M486,266.6c-14.3,0-26,11.7-26,26s11.7,26,26,26s26-11.7,26-26S500.3,266.6,486,266.6z M486,298.6
			c-3.3,0-6-2.7-6-6s2.7-6,6-6s6,2.7,6,6C492,295.9,489.3,298.6,486,298.6z"/>
	</g>
</g>
<g>
	<g>
		<path class="st0" d="M350,266.6c-14.3,0-26,11.7-26,26s11.7,26,26,26c14.3,0,26-11.7,26-26S364.3,266.6,350,266.6z M350,298.6
			c-3.3,0-6-2.7-6-6s2.7-6,6-6s6,2.7,6,6C356,295.9,353.3,298.6,350,298.6z"/>
	</g>
</g>
<g>
	<g>
		<path class="st0" d="M418,266.6c-14.3,0-26,11.7-26,26s11.7,26,26,26s26-11.7,26-26S432.3,266.6,418,266.6z M418,298.6
			c-3.3,0-6-2.7-6-6s2.7-6,6-6s6,2.7,6,6C424,295.9,421.3,298.6,418,298.6z"/>
	</g>
</g>
<g>
	<g>
		<path class="st0" d="M502,492H91c-9.4,0-17-7.6-17-17s7.6-17,17-17h56.5c5.5,0,10-4.5,10-10s-4.5-10-10-10H91
			c-20.4,0-37,16.6-37,37c0,20.4,16.6,37,37,37h411c5.5,0,10-4.5,10-10C512,496.5,507.5,492,502,492z"/>
	</g>
</g>
<g>
	<g>
		<path class="st0" d="M157.7,311.6L119,245.3c-2.8-4.8-8.9-6.4-13.7-3.6c-4.8,2.8-6.4,8.9-3.6,13.7l38.7,66.3c1.9,3.2,5.2,5,8.6,5
			c1.7,0,3.4-0.4,5-1.4C158.9,322.5,160.5,316.4,157.7,311.6z"/>
	</g>
</g>
<g>
	<g>
		<path class="st0" d="M99.3,211.2c-3.9-3.9-10.2-3.9-14.1,0l-0.8,0.8c-3.9,3.9-3.9,10.2,0,14.1c2,2,4.5,2.9,7.1,2.9
			c2.6,0,5.1-1,7.1-2.9l0.8-0.8C103.2,221.4,103.2,215.1,99.3,211.2z"/>
	</g>
</g>
</svg>
