<?xml version="1.0" encoding="utf-8"?>
<!-- Generator: Adobe Illustrator 23.0.0, SVG Export Plug-In . SVG Version: 6.00 Build 0)  -->
<svg version="1.1" id="Слой_1" xmlns="http://www.w3.org/2000/svg" xmlns:xlink="http://www.w3.org/1999/xlink" x="0px" y="0px"
	 viewBox="0 0 512 512" style="enable-background:new 0 0 512 512;" xml:space="preserve">
<style type="text/css">
	.st0{fill:#6989AD;}
</style>
<g id="Outline">
	<path class="st0" d="M136,256c-66.3,0-120,53.7-120,120s53.7,120,120,120s120-53.7,120-120C255.9,309.8,202.2,256.1,136,256z
		 M136,480c-57.4,0-104-46.6-104-104s46.6-104,104-104s104,46.6,104,104C239.9,433.4,193.4,479.9,136,480z"/>
	<path class="st0" d="M128,288h16v16h-16V288z"/>
	<path class="st0" d="M85.1,303.8l13.9-8l8,13.9l-13.9,8L85.1,303.8z"/>
	<path class="st0" d="M55.8,338.9l8-13.9l13.9,8l-8,13.9L55.8,338.9z"/>
	<path class="st0" d="M48,368h16v16H48V368z"/>
	<path class="st0" d="M55.8,413.1l13.9-8l8,13.9l-13.9,8L55.8,413.1z"/>
	<path class="st0" d="M85.1,448.2l8-13.9l13.9,8l-8,13.9L85.1,448.2z"/>
	<path class="st0" d="M128,448h16v16h-16V448z"/>
	<path class="st0" d="M165.1,442.3l13.9-8l8,13.9l-13.9,8L165.1,442.3z"/>
	<path class="st0" d="M194.3,418.9l8-13.9l13.9,8l-8,13.9L194.3,418.9z"/>
	<path class="st0" d="M208,368h16v16h-16V368z"/>
	<path class="st0" d="M194.3,333.1l13.9-8l8,13.9l-13.9,8L194.3,333.1z"/>
	<path class="st0" d="M165.1,309.6l8-13.9l13.9,8l-8,13.9L165.1,309.6z"/>
	<path class="st0" d="M144,372.7V328h-16v48c0,2.1,0.8,4.2,2.3,5.7l32,32l11.3-11.3L144,372.7z"/>
	<path class="st0" d="M328,256c-0.1,34.2-24.1,63.6-57.6,70.6l3.2,15.7c47.6-9.7,78.4-56.2,68.6-103.8
		c-9.7-47.6-56.2-78.4-103.8-68.6c-34.6,7.1-61.6,34.1-68.6,68.6l15.7,3.2c8-39,46-64.1,85-56.1C303.9,192.3,328,221.8,328,256z"/>
	<path class="st0" d="M137.2,238.9l15.8,2.3c8.2-56.8,61-96.3,117.8-88s96.3,61,88,117.8c-6.6,45.6-42.4,81.4-88,88l2.3,15.8
		c65.6-9.5,111.1-70.3,101.6-135.9c-9.5-65.6-70.3-111.1-135.9-101.6C186.2,144.9,144.8,186.2,137.2,238.9z"/>
	<path class="st0" d="M179.3,97.4l14.7-6.3l6.3,14.7l-14.7,6.3L179.3,97.4z"/>
	<path class="st0" d="M89.5,198l5.9-14.8l14.8,5.9l-5.9,14.8L89.5,198z"/>
	<path class="st0" d="M311.7,406.1l14.7-6.3l6.3,14.7l-14.7,6.3L311.7,406.1z"/>
	<path class="st0" d="M401.3,322.9l5.9-14.8l14.8,5.9l-5.9,14.8L401.3,322.9z"/>
	<path class="st0" d="M399.9,185.6l14.7-6.3l6.3,14.7l-14.7,6.3L399.9,185.6z"/>
	<path class="st0" d="M472.1,299.4l-41.5-21.6c2-15.9,1.8-32-0.6-47.9l40.9-22.6c3.6-2,5.1-6.4,3.5-10.2l-25.2-58.8
		c-1.6-3.8-5.8-5.7-9.8-4.5l-44.6,14.1c-9.8-12.6-21.4-23.9-34.3-33.4l13-44.9c1.1-3.9-0.9-8.1-4.7-9.6l-59.4-23.8
		c-3.8-1.5-8.2,0.1-10.1,3.7l-21.6,41.5c-15.9-2-32-1.8-47.9,0.6L207.3,41c-2-3.6-6.4-5.1-10.2-3.5l-58.8,25.2
		c-3.8,1.6-5.7,5.8-4.5,9.8l14.1,44.6c-12.6,9.8-23.9,21.4-33.4,34.3l-44.9-13c-3.9-1.1-8.1,0.9-9.6,4.7l-23.8,59.4
		c-1.5,3.8,0.1,8.2,3.7,10.1l41.5,21.6c-0.6,4.5-0.9,9-1.2,13.4l16,0.8c0.3-5.8,0.9-11.7,1.8-17.4c0.5-3.4-1.2-6.8-4.2-8.3
		l-40.1-20.9l18.4-46l43.4,12.5c3.3,1,6.8-0.3,8.8-3.1c10.3-14.9,23-28,37.7-38.6c2.8-2,4-5.6,2.9-8.9l-13.6-43.1l45.5-19.5
		l21.8,39.5c1.7,3,5.1,4.6,8.4,4c17.8-3.2,36.1-3.5,54-0.7c3.4,0.5,6.7-1.2,8.3-4.2l20.9-40.1l46,18.4l-12.5,43.4
		c-1,3.3,0.3,6.8,3.1,8.8c14.9,10.3,28,23,38.6,37.7c2,2.8,5.6,4,8.9,2.9l43.1-13.6l19.5,45.5l-39.5,21.8c-3,1.7-4.6,5.1-4,8.4
		c3.2,17.8,3.5,36.1,0.7,54c-0.5,3.4,1.2,6.8,4.2,8.3l40.1,20.9l-18.4,46l-43.4-12.5c-3.3-1-6.8,0.3-8.8,3.1
		c-10.3,14.9-23,28-37.7,38.6c-2.8,2-4,5.6-2.9,8.9l13.6,43.1l-45.5,19.5l-21.8-39.5c-1.7-3-5.1-4.6-8.4-4c-7,1.3-14.1,2.1-21.3,2.4
		l0.8,16c5.9-0.3,11.8-0.9,17.7-1.7l22.6,40.9c2,3.6,6.4,5.1,10.2,3.5l58.8-25.2c3.8-1.6,5.7-5.8,4.5-9.8l-14.1-44.6
		c12.6-9.8,23.9-21.4,33.4-34.3l44.9,13c3.9,1.1,8.1-0.9,9.6-4.7l23.8-59.4C477.4,305.7,475.8,301.3,472.1,299.4L472.1,299.4z"/>
	<path class="st0" d="M307.8,104.6l5.9-14.8l14.8,5.9l-5.9,14.8L307.8,104.6z"/>
</g>
</svg>
