<?xml version="1.0" encoding="utf-8"?>
<!-- Generator: Adobe Illustrator 23.1.0, SVG Export Plug-In . SVG Version: 6.00 Build 0)  -->
<svg version="1.1" id="Слой_1" xmlns="http://www.w3.org/2000/svg" xmlns:xlink="http://www.w3.org/1999/xlink" x="0px" y="0px"
	 viewBox="0 0 496 496" style="enable-background:new 0 0 496 496;" xml:space="preserve">
<style type="text/css">
	.st0{fill-rule:evenodd;clip-rule:evenodd;fill:#6989AD;}
</style>
<path class="st0" d="M19.7,1.2C-1.4,8.8-6.9,36.1,9.8,50.8c2.4,2.1,6.6,4.6,9.3,5.5l4.9,1.6v157c0,100.5,0.4,157.6,1,158.8
	c2,3.7,6.2,4,44.2,4c32.7,0,36.9,0.2,36.9,1.6c0,3.4,5.6,12.7,10.5,17.3c11.5,10.9,25.1,13.6,40.1,8c7.3-2.7,16.4-11.3,20.1-18.7
	c2.5-5.1,2.8-6.7,2.8-16.2c0-9.3-0.3-11.2-2.7-16.2c-3.4-7.3-11.2-15.1-18.6-18.6c-5-2.4-7-2.7-15.7-2.7c-8.3,0-10.8,0.4-14.9,2.3
	c-10.1,4.7-17.3,12.4-20.7,22.5l-1.8,5.2l-33.1,0.3L39,362.8v-152v-152h209h209v152v152l-32.7-0.3l-32.7-0.3l-1.9-5.5
	c-7.1-21.1-31.9-31.1-52.1-21.2c-15.1,7.4-23.8,24.5-20.7,40.4c5.8,29.6,40.6,41.6,62.5,21.6c5-4.6,11.6-15,11.6-18.5
	c0-1,7.6-1.4,38.6-1.6l38.6-0.3l2.4-2.8l2.4-2.8V215.3V58.9l5.4-2.5c11.7-5.4,18.2-16.2,17.4-29.2c-0.7-11.3-5.9-19.2-16.1-24.7
	l-4.1-2.2l-226-0.2C61.2-0.1,22.9,0.1,19.7,1.2z M472.7,16c5.1,2.8,7.7,7.3,7.8,13.4c0.1,6.1-2.2,9.9-7.5,12.6
	c-3.2,1.6-16,1.7-224.7,1.8c-242.1,0-225.1,0.4-230.5-5.9c-2.2-2.6-2.7-4.2-2.7-8.4c0-8.1,3.7-12.9,11.5-14.7
	c1.7-0.4,102-0.7,223-0.6C456.3,14.3,469.7,14.4,472.7,16z M315.3,194L253,256.2L223.8,227c-27.1-27.1-29.5-29.2-32.7-29.2
	c-3.2,0-6.2,2.7-43.7,40.3c-36.7,36.7-40.3,40.6-40.3,43.5c0,2.2,0.8,4.1,2.5,5.7c5.3,5.3,4.9,5.6,45-34.5l37-37l29.5,29.5
	c25.5,25.5,29.9,29.5,32.5,29.5c2.6,0,11.1-8.1,69-65.9c62.2-62.2,66-66.1,66-69.5c0-4.7-2.7-7.6-7.3-7.6
	C377.8,131.8,374.4,135,315.3,194z M239.1,312.8c-11.5,2.4-23.4,11.7-28.4,22.3c-10.2,21.6-1.9,46,19.2,56.4c7.4,3.6,8,3.8,18.2,3.8
	c10.2,0,10.9-0.1,18.2-3.8c28.6-14.1,31.8-52.9,6-71.5C263.5,313.8,249.4,310.7,239.1,312.8z M259.3,329.4
	c9.5,4.8,15.7,14.3,15.7,23.9c0,25.4-31.1,37.4-47.5,18.3c-12.2-14.2-6.1-36.6,11.6-42.9C245.4,326.4,254.1,326.7,259.3,329.4z
	 M151.8,349.7c5.3,2.7,10.9,9.2,12.2,14.3c5.2,19.4-15,36.1-32.8,26.9c-11.5-5.9-15.6-18.8-9.8-30.6
	C127.2,348.5,140.5,343.9,151.8,349.7z M363.3,348.1c15.7,6.6,18.8,27.8,5.6,39c-7.6,6.5-18.1,7.3-26.6,2
	c-8.7-5.4-13-16.1-10.2-25.8c1.6-5.6,7.2-12.3,12.5-14.7C349.3,346.5,358.7,346.2,363.3,348.1z M206.5,414.4
	c-4.2,0.9-11.1,3.8-14.9,6.1l-3.9,2.5l-42.1-0.2c-36.1-0.1-42.7,0.1-46.5,1.4c-10.8,3.8-19.1,11.9-23.1,22.4
	c-1.7,4.6-2.2,8.6-2.7,21.7c-0.6,17.9-0.1,22.6,2.8,25.4c1.9,1.9,4.9,1.9,172.9,1.9h170.9l2.2-2.7c2.1-2.6,2.1-3.5,1.8-23.3
	c-0.3-19.7-0.4-20.7-2.9-26c-3.9-8.2-9.9-14.4-17.7-18.2l-6.7-3.3l-38.3-0.3c-24.3-0.2-39.6,0.1-42,0.7c-3.1,0.9-4.1,0.7-6.2-0.8
	c-1.4-1-4.1-2.7-6-3.6c-8.1-4.2-11.7-4.5-54.5-4.4C227,414,207.6,414.2,206.5,414.4z M296,432.4c5.5,2.7,10.4,8.4,12.7,14.7
	c0.7,1.9,1.2,9.5,1.3,18.9l0.1,15.8h-62h-62l0.1-15.8c0-9.4,0.6-17,1.3-18.9c2.3-6.2,7.2-11.9,12.7-14.7l5.3-2.7H248h42.6L296,432.4
	z M174.5,438.5c-2.4,5.7-3.4,14.1-3.5,27.5l0,14.8h-41.6H87.8l0.3-13.8c0.3-13,0.5-14,3.2-18.5c3-5.1,8.7-9.5,13.9-10.7
	c1.8-0.4,18.3-0.8,36.6-0.9C173.3,436.8,175.2,436.9,174.5,438.5z M397,440.6c2.7,1.6,5.7,4.6,7.5,7.6c3,4.8,3,5,3,19v14.1
	l-41.3,0.3l-41.3,0.3l0-14.8c0-13.4-1.1-21.8-3.5-27.5c-0.7-1.6,1.4-1.8,32.1-2c18.1-0.1,34.2-0.1,35.9,0.1
	C391.2,437.8,394.5,439.2,397,440.6z"/>
</svg>
