<?xml version="1.0" encoding="utf-8"?>
<!-- Generator: Adobe Illustrator 25.3.1, SVG Export Plug-In . SVG Version: 6.00 Build 0)  -->
<svg version="1.1" id="Icons" xmlns="http://www.w3.org/2000/svg" xmlns:xlink="http://www.w3.org/1999/xlink" x="0px" y="0px"
	 viewBox="0 0 227.5 484.4" style="enable-background:new 0 0 227.5 484.4;" xml:space="preserve">
<style type="text/css">
	.st0{fill:#FFFFFF;}
</style>
<path class="st0" d="M113.6,123.2c-34,0-61.6-27.6-61.6-61.6C52,27.6,79.6,0,113.6,0c34,0,61.6,27.6,61.6,61.6c0,0,0,0,0,0
	C175.1,95.6,147.6,123.1,113.6,123.2z M113.6,13.9c-26.4,0-47.7,21.4-47.7,47.7s21.4,47.7,47.7,47.7s47.7-21.4,47.7-47.7
	S139.9,13.9,113.6,13.9L113.6,13.9z"/>
<path class="st0" d="M186.9,334.9h-13.6c-3.8,0-6.9-3.1-6.9-6.9c0-3.8,3.1-6.9,6.9-6.9h13.6c14.8,0,26.7-12,26.8-26.8V185.5
	c0-16.9-13.8-30.7-30.7-30.7H44.5c-17,0-30.7,13.8-30.7,30.7v108.9c0,14.8,12,26.7,26.8,26.7h13.1c3.8,0,6.9,3.1,6.9,6.9
	c0,3.8-3.1,6.9-6.9,6.9H40.6C18.2,334.9,0,316.7,0,294.3V185.5c0-24.6,20-44.5,44.5-44.6h138.4c24.6,0,44.5,20,44.6,44.6v108.9
	C227.4,316.8,209.3,334.9,186.9,334.9z"/>
<path class="st0" d="M143.4,484.4c-20.2,0-36.6-16.4-36.6-36.6V332.5c0-3.8,3.1-6.9,6.9-6.9c3.8,0,6.9,3.1,6.9,6.9v115.3
	c0,12.6,10.2,22.7,22.7,22.7c12.6,0,22.7-10.2,22.7-22.7V229.3c0-3.8,3.1-6.9,6.9-6.9s6.9,3.1,6.9,6.9v218.5
	C180,468,163.6,484.4,143.4,484.4z"/>
<path class="st0" d="M84.1,484.4c-20.2,0-36.6-16.4-36.6-36.6V229.3c0-3.8,3.1-6.9,6.9-6.9s6.9,3.1,6.9,6.9v218.5
	c0,12.6,10.2,22.7,22.8,22.7c12.6,0,22.7-10.2,22.7-22.7V332.5c0-3.8,3.1-6.9,6.9-6.9c3.8,0,6.9,3.1,6.9,6.9v115.3
	C120.6,468,104.3,484.4,84.1,484.4z"/>
</svg>
