<?xml version="1.0" encoding="utf-8"?>
<!-- Generator: Adobe Illustrator 23.0.0, SVG Export Plug-In . SVG Version: 6.00 Build 0)  -->
<svg version="1.1" id="Layer_1" xmlns="http://www.w3.org/2000/svg" xmlns:xlink="http://www.w3.org/1999/xlink" x="0px" y="0px"
	 viewBox="0 0 496 496" style="enable-background:new 0 0 496 496;" xml:space="preserve">
<style type="text/css">
	.st0{fill:#507298;}
</style>
<g>
	<g>
		<g>
			<path class="st0" d="M496,208v-64h-64v24H328V64h24V0h-64v24H64V0H0v64h24v224H0v64h64v-24h104v104h-24v64h64v-24h224v24h64v-64
				h-24V208H496z M304,16h32v32h-32V16z M16,48V16h32v32H16z M48,336H16v-32h32V336z M64,312v-24H40V64h24V40h224v24h24v104H208v-24
				h-64v64h24v104H64z M184,208h24v-24h104v104h-24v24H184V208z M160,192v-32h32v32H160z M304,304h32v32h-32V304z M192,480h-32v-32
				h32V480z M432,456H208v-24h-24V328h104v24h64v-64h-24V184h104v24h24v224h-24V456z M480,448v32h-32v-32H480z M448,192v-32h32v32
				H448z"/>
			<rect x="392" y="64" class="st0" width="16" height="24"/>
			<rect x="392" y="104" class="st0" width="16" height="24"/>
			<rect x="408" y="88" class="st0" width="24" height="16"/>
			<rect x="368" y="88" class="st0" width="24" height="16"/>
			<rect x="88" y="368" class="st0" width="16" height="24"/>
			<rect x="88" y="408" class="st0" width="16" height="24"/>
			<rect x="104" y="392" class="st0" width="24" height="16"/>
			<rect x="64" y="392" class="st0" width="24" height="16"/>
		</g>
	</g>
</g>
</svg>
