<?xml version="1.0" encoding="utf-8"?>
<!-- Generator: Adobe Illustrator 23.0.0, SVG Export Plug-In . SVG Version: 6.00 Build 0)  -->
<svg version="1.1" id="Capa_1" xmlns="http://www.w3.org/2000/svg" xmlns:xlink="http://www.w3.org/1999/xlink" x="0px" y="0px"
	 viewBox="0 0 513.9 513.9" style="enable-background:new 0 0 513.9 513.9;" xml:space="preserve">
<style type="text/css">
	.st0{fill:#6989AD;}
</style>
<g>
	<g>
		<g>
			<path class="st0" d="M257.1,137.1c-4.8,0-8,3.2-8,8v42.4c-0.8,0-1.6,0-2.4,0l2.4,15.2v62.4c0,4.8,3.2,8,8,8h61.6
				c0,0.8-0.8,2.4-0.8,3.2l16,4c0.8-2.4,0.8-4.8,1.6-6.4h25.6c4.8,0,8-3.2,8-8s-3.2-8-8-8h-96V145.1
				C265.1,140.3,261.9,137.1,257.1,137.1z"/>
			<path class="st0" d="M334.7,253.1c-0.8-5.6-2.4-11.2-4-16.8l-15.2,5.6c1.6,4,2.4,8.8,3.2,13.6L334.7,253.1z"/>
			<path class="st0" d="M229.9,332.3c5.6,2.4,11.2,4,16.8,4.8l2.4-16c-4.8-0.8-8.8-2.4-13.6-4L229.9,332.3z"/>
			<path class="st0" d="M330.7,288.3l-15.2-5.6c-1.6,4-4,8.8-6.4,12l13.6,8.8C325.9,298.7,329.1,293.9,330.7,288.3z"/>
			<path class="st0" d="M255.5,337.9c1.6,0,3.2,0,4,0c4.8,0,8.8,0,13.6-0.8l-2.4-16c-4.8,0.8-9.6,0.8-13.6,0.8L255.5,337.9z"/>
			<path class="st0" d="M305.1,223.5c3.2,3.2,5.6,7.2,8,11.2l14.4-7.2c-2.4-5.6-5.6-10.4-9.6-14.4L305.1,223.5z"/>
			<path class="st0" d="M277.1,319.5l4.8,15.2c5.6-1.6,11.2-4,16-7.2l-8-13.6C285.9,316.3,281.1,317.9,277.1,319.5z"/>
			<path class="st0" d="M269.9,203.5c4.8,0.8,8.8,2.4,13.6,4l5.6-14.4c-5.6-2.4-11.2-4-16.8-4.8L269.9,203.5z"/>
			<path class="st0" d="M317.9,310.7l-12.8-9.6c-3.2,3.2-6.4,6.4-10.4,9.6l9.6,12.8C309.9,319.5,313.9,315.5,317.9,310.7z"/>
			<path class="st0" d="M289.1,210.7c4,2.4,8,4.8,11.2,8l11.2-12c-4-4-8.8-7.2-14.4-10.4L289.1,210.7z"/>
			<path class="st0" d="M185.1,262.7h16c0-4.8,0-8.8,1.6-13.6l-15.2-4C185.1,250.7,185.1,256.3,185.1,262.7z"/>
			<path class="st0" d="M192.3,296.3c2.4,5.6,5.6,10.4,9.6,14.4l12-10.4c-3.2-3.2-5.6-7.2-8-11.2L192.3,296.3z"/>
			<path class="st0" d="M189.1,288.3l15.2-5.6c-1.6-4-2.4-8.8-3.2-13.6l-16,1.6C185.1,277.1,186.7,282.7,189.1,288.3z"/>
			<path class="st0" d="M201.9,213.9l12,10.4c3.2-3.2,6.4-6.4,10.4-9.6l-9.6-12.8C209.9,205.1,205.1,209.9,201.9,213.9z"/>
			<path class="st0" d="M188.3,237.1l15.2,5.6c1.6-4,4-8.8,6.4-12l-13.6-8.8C193.1,225.9,190.7,231.5,188.3,237.1z"/>
			<path class="st0" d="M221.9,197.1l8,13.6c4-2.4,8-4,12.8-5.6l-4.8-15.2C232.3,191.5,226.7,193.9,221.9,197.1z"/>
			<path class="st0" d="M214.7,439.5c16,4,32,6.4,48.8,6.4c48,0,95.2-18.4,129.6-52.8c72-72,70.4-189.6-3.2-263.2
				c-0.8-0.8-1.6-1.6-2.4-2.4c0,0,0-0.8-0.8-0.8l-0.8-0.8c-73.6-69.6-188.8-69.6-259.2,0.8c-42.4,42.4-60.8,104-49.6,163.2
				c0.8,4,4.8,7.2,9.6,6.4c4-0.8,7.2-4.8,6.4-9.6c-9.6-52,4.8-104.8,40-143.2l11.2,11.2c1.6,1.6,4,2.4,5.6,2.4s4-0.8,5.6-2.4
				c3.2-3.2,3.2-8,0-11.2l-11.2-11.2c63.2-56.8,160-56.8,225.6,0l-11.2,11.2c-3.2,3.2-3.2,8,0,11.2c1.6,1.6,4,2.4,5.6,2.4
				s4-0.8,5.6-2.4l11.2-11.2c62.4,65.6,64.8,166.4,5.6,231.2l-11.2-11.2c-3.2-3.2-8-3.2-11.2,0s-3.2,8,0,11.2l11.2,11.2
				c-41.6,37.6-100.8,52-156.8,36.8c-4-0.8-8.8,1.6-9.6,5.6C208.3,433.9,210.7,438.7,214.7,439.5z"/>
			<path class="st0" d="M512.3,407.5l-36.8-98.4c4-16.8,6.4-34.4,6.4-52c0-49.6-15.2-96-44.8-134.4l17.6-17.6c3.2-3.2,3.2-8,0-11.2
				l-32.8-32.8c-3.2-3.2-8-3.2-11.2,0l-17.6,16.8c-54.4-41.6-124-54.4-187.2-39.2l-104-38.4c-3.2-0.8-6.4,0-8,1.6L3.5,91.5
				c-2.4,2.4-3.2,5.6-1.6,8.8l40,95.2c-8.8,30.4-11.2,62.4-6.4,95.2c0.8,4,4.8,7.2,8.8,6.4c4-0.8,7.2-4.8,6.4-8.8
				c-9.6-66.4,12-131.2,59.2-178.4c81.6-81.6,213.6-81.6,295.2-0.8c39.2,39.2,60.8,91.2,60.8,147.2c0,16-1.6,31.2-5.6,46.4
				c-1.6,1.6-1.6,4-1.6,6.4c-9.6,35.2-28,68-54.4,94.4s-60,44.8-95.2,54.4c-2.4,0-4,0-5.6,1.6c-27.2,6.4-56,7.2-84.8,2.4
				c-4-0.8-8.8,2.4-9.6,6.4s2.4,8.8,6.4,9.6c13.6,2.4,27.2,4,40.8,4c17.6,0,36-2.4,52.8-6.4l105.6,37.6c0.8,0,1.6,0.8,2.4,0.8
				c2.4,0,4-0.8,5.6-2.4l88-96C513.1,413.1,513.1,409.9,512.3,407.5z M19.5,97.9l81.6-80.8l24.8,8.8l-96.8,96L19.5,97.9z M98.7,98.7
				c-21.6,21.6-38.4,47.2-49.6,74.4l-14.4-34.4L141.9,32.3l37.6,13.6C150.7,57.9,122.7,74.7,98.7,98.7z M416.3,98.7
				c-4-4-7.2-7.2-11.2-10.4l11.2-11.2l21.6,21.6l-11.2,11.2C423.5,105.9,419.5,101.9,416.3,98.7z M334.7,467.5
				c29.6-11.2,57.6-28.8,80.8-52s40.8-51.2,52-81.6l12.8,32.8l-108,114.4L334.7,467.5z M414.7,495.5l-25.6-8.8l97.6-103.2l8.8,24
				L414.7,495.5z"/>
		</g>
		<g>
			<path class="st0" d="M45.1,381.2c3.9,0,7.7-0.6,11.3-1.8l21.8,21.8l23.9-23.9l-21.8-21.8c4.2-13.1,0.7-27.7-9-37.4
				c-7-7-16.2-10.8-26.1-10.8c-5.5,0-11,1.2-16,3.6c-0.7,0.4-1.3,1-1.4,1.9c-0.1,0.8,0.1,1.6,0.7,2.2l22.9,22.9
				c1.7,1.7,2.6,3.9,2.6,6.3c0,2.4-0.9,4.6-2.6,6.3c-3.4,3.4-9.3,3.4-12.6,0l-22.9-22.9c-0.6-0.6-1.4-0.8-2.2-0.7
				c-0.8,0.1-1.5,0.7-1.9,1.4c-6.7,14.1-3.8,31,7.2,42.1C26,377.4,35.3,381.2,45.1,381.2z"/>
			<path class="st0" d="M161.6,423.6c-3.9,0-7.7,0.6-11.4,1.8l-24.1-24.1l-23.9,23.9l24.1,24.1c-4.2,13.1-0.7,27.6,9,37.4
				c7,7,16.2,10.8,26.1,10.8c5.5,0,11-1.2,16-3.6c0.7-0.4,1.3-1,1.4-1.9s-0.1-1.6-0.7-2.2l-22.9-22.9c-1.7-1.7-2.6-3.9-2.6-6.3
				c0-2.4,0.9-4.6,2.6-6.3c3.4-3.4,9.3-3.4,12.6,0l22.9,22.9c0.6,0.6,1.4,0.8,2.2,0.7c0.8-0.1,1.5-0.7,1.9-1.4
				c6.7-14.1,3.9-31-7.2-42.1C180.7,427.5,171.4,423.6,161.6,423.6z"/>
			<path class="st0" d="M151.8,369.3c0,0,4,3.5,7.3,1.9c3.7-1.9,14.2,8.5,17.5,10.9c0,0,0,0,0.1,0l-1.8,1.8c-2.4,2.4-2.4,6.3,0,8.7
				c2.4,2.4,6.3,2.4,8.7,0l14.5-14.4c2.4-2.4,2.4-6.3,0-8.7c-2.4-2.4-6.3-2.4-8.7,0l-2.4,2.4c-2-2.7-5.3-7.4-4.9-9
				c1.8-6.8-12.1-22.8-12.1-22.8c-34.4-34.4-57.4-33.6-68.3-29.9c-4.4,1.5-3.6,2.5,1,3.3c33.2,5.8,37.3,25.4,31.7,32.9
				c-2.2,2.9,1,6.4,1,6.4l1.2,1.2l-56,56c0.8,0.5,1.5,1,2.1,1.6l9.4,9.4c0.6,0.6,1.2,1.4,1.6,2.1l56-56L151.8,369.3z"/>
			<path class="st0" d="M78.8,415.3c-2.1-2.1-5.6-2.2-7.8-0.3L8.7,470.8c-2.2,1.9-2.3,5.2-0.3,7.3l17,16.9c2.1,2.1,5.3,2,7.2-0.3
				l55.8-62.3c1.9-2.2,1.8-5.7-0.3-7.8L78.8,415.3z"/>
		</g>
	</g>
</g>
</svg>
